%TF.GenerationSoftware,KiCad,Pcbnew,9.0.1*%
%TF.CreationDate,2025-06-14T19:14:14-04:00*%
%TF.ProjectId,SCH16TBreakout,53434831-3654-4427-9265-616b6f75742e,rev?*%
%TF.SameCoordinates,Original*%
%TF.FileFunction,Legend,Top*%
%TF.FilePolarity,Positive*%
%FSLAX46Y46*%
G04 Gerber Fmt 4.6, Leading zero omitted, Abs format (unit mm)*
G04 Created by KiCad (PCBNEW 9.0.1) date 2025-06-14 19:14:14*
%MOMM*%
%LPD*%
G01*
G04 APERTURE LIST*
G04 Aperture macros list*
%AMRoundRect*
0 Rectangle with rounded corners*
0 $1 Rounding radius*
0 $2 $3 $4 $5 $6 $7 $8 $9 X,Y pos of 4 corners*
0 Add a 4 corners polygon primitive as box body*
4,1,4,$2,$3,$4,$5,$6,$7,$8,$9,$2,$3,0*
0 Add four circle primitives for the rounded corners*
1,1,$1+$1,$2,$3*
1,1,$1+$1,$4,$5*
1,1,$1+$1,$6,$7*
1,1,$1+$1,$8,$9*
0 Add four rect primitives between the rounded corners*
20,1,$1+$1,$2,$3,$4,$5,0*
20,1,$1+$1,$4,$5,$6,$7,0*
20,1,$1+$1,$6,$7,$8,$9,0*
20,1,$1+$1,$8,$9,$2,$3,0*%
G04 Aperture macros list end*
%ADD10C,0.180000*%
%ADD11C,0.254000*%
%ADD12C,0.120000*%
%ADD13C,0.150000*%
%ADD14C,0.100000*%
%ADD15C,0.200000*%
%ADD16RoundRect,0.200000X-0.200000X-0.275000X0.200000X-0.275000X0.200000X0.275000X-0.200000X0.275000X0*%
%ADD17RoundRect,0.200000X0.200000X0.275000X-0.200000X0.275000X-0.200000X-0.275000X0.200000X-0.275000X0*%
%ADD18C,3.500000*%
%ADD19R,1.700000X1.700000*%
%ADD20C,1.700000*%
%ADD21RoundRect,0.225000X-0.250000X0.225000X-0.250000X-0.225000X0.250000X-0.225000X0.250000X0.225000X0*%
%ADD22RoundRect,0.200000X0.275000X-0.200000X0.275000X0.200000X-0.275000X0.200000X-0.275000X-0.200000X0*%
%ADD23RoundRect,0.225000X0.250000X-0.225000X0.250000X0.225000X-0.250000X0.225000X-0.250000X-0.225000X0*%
%ADD24RoundRect,0.218750X-0.218750X-0.256250X0.218750X-0.256250X0.218750X0.256250X-0.218750X0.256250X0*%
%ADD25R,1.870000X0.500000*%
G04 APERTURE END LIST*
D10*
X46000000Y-53977068D02*
X46000000Y-54453259D01*
X45666667Y-53453259D02*
X46000000Y-53977068D01*
X46000000Y-53977068D02*
X46333333Y-53453259D01*
X44616667Y-55203259D02*
X45283333Y-55203259D01*
X45283333Y-55203259D02*
X44616667Y-56203259D01*
X44616667Y-56203259D02*
X45283333Y-56203259D01*
X47166667Y-56353259D02*
X47833333Y-57353259D01*
X47833333Y-56353259D02*
X47166667Y-57353259D01*
D11*
X34642380Y-58904318D02*
X34642380Y-59932413D01*
X34642380Y-59932413D02*
X34702857Y-60053365D01*
X34702857Y-60053365D02*
X34763333Y-60113842D01*
X34763333Y-60113842D02*
X34884285Y-60174318D01*
X34884285Y-60174318D02*
X35126190Y-60174318D01*
X35126190Y-60174318D02*
X35247142Y-60113842D01*
X35247142Y-60113842D02*
X35307619Y-60053365D01*
X35307619Y-60053365D02*
X35368095Y-59932413D01*
X35368095Y-59932413D02*
X35368095Y-58904318D01*
X36638095Y-60174318D02*
X35912380Y-60174318D01*
X36275237Y-60174318D02*
X36275237Y-58904318D01*
X36275237Y-58904318D02*
X36154285Y-59085746D01*
X36154285Y-59085746D02*
X36033333Y-59206699D01*
X36033333Y-59206699D02*
X35912380Y-59267175D01*
D12*
%TO.C,R5*%
X25487742Y-54677500D02*
X25962258Y-54677500D01*
X25487742Y-55722500D02*
X25962258Y-55722500D01*
%TO.C,R4*%
X25962258Y-56177500D02*
X25487742Y-56177500D01*
X25962258Y-57222500D02*
X25487742Y-57222500D01*
D13*
%TO.C,REF\u002A\u002A*%
X44950000Y-53250000D02*
X44550000Y-53750000D01*
X44950000Y-53250000D02*
X45350000Y-53750000D01*
X44950000Y-54750000D02*
X44950000Y-53250000D01*
X45950000Y-55750000D02*
X47450000Y-55750000D01*
X47450000Y-55750000D02*
X46950000Y-55350000D01*
X47450000Y-55750000D02*
X46950000Y-56150000D01*
X45950000Y-55750000D02*
G75*
G02*
X43950000Y-55750000I-1000000J0D01*
G01*
X43950000Y-55750000D02*
G75*
G02*
X45950000Y-55750000I1000000J0D01*
G01*
D12*
%TO.C,R2*%
X25487742Y-59177500D02*
X25962258Y-59177500D01*
X25487742Y-60222500D02*
X25962258Y-60222500D01*
%TO.C,J1*%
X27830000Y-52180000D02*
X27830001Y-50800000D01*
X29210000Y-52179999D02*
X27830000Y-52180000D01*
X30480000Y-49420000D02*
X43290000Y-49420000D01*
X30480000Y-52180000D02*
X30480000Y-49420000D01*
X30480000Y-52180000D02*
X43290000Y-52180000D01*
X43290000Y-52180000D02*
X43290000Y-49420000D01*
%TO.C,J2*%
X27830000Y-67200000D02*
X27830000Y-69960000D01*
X40640000Y-67200000D02*
X27830000Y-67200000D01*
X40640000Y-67200000D02*
X40640000Y-69960000D01*
X40640000Y-69960000D02*
X27830000Y-69960000D01*
X41910000Y-67200001D02*
X43290000Y-67200000D01*
X43290000Y-67200000D02*
X43289999Y-68580000D01*
%TO.C,R3*%
X25962258Y-57677500D02*
X25487742Y-57677500D01*
X25962258Y-58722500D02*
X25487742Y-58722500D01*
%TO.C,C4*%
X44100000Y-64559419D02*
X44100000Y-64840581D01*
X45120000Y-64559419D02*
X45120000Y-64840581D01*
%TO.C,R1*%
X45677500Y-58837258D02*
X45677500Y-58362742D01*
X46722500Y-58837258D02*
X46722500Y-58362742D01*
%TO.C,C3*%
X44100000Y-58740581D02*
X44100000Y-58459419D01*
X45120000Y-58740581D02*
X45120000Y-58459419D01*
%TO.C,D1*%
X24302500Y-52965000D02*
X24302500Y-54435000D01*
X24302500Y-54435000D02*
X26587500Y-54435000D01*
X26587500Y-52965000D02*
X24302500Y-52965000D01*
%TO.C,C5*%
X25990000Y-64834419D02*
X25990000Y-65115581D01*
X27010000Y-64834419D02*
X27010000Y-65115581D01*
%TO.C,C2*%
X25990000Y-61809419D02*
X25990000Y-62090581D01*
X27010000Y-61809419D02*
X27010000Y-62090581D01*
D14*
%TO.C,U1*%
X27910000Y-55200000D02*
X27910000Y-55200000D01*
X28010000Y-55200000D02*
X28010000Y-55200000D01*
D15*
X30710000Y-53700000D02*
X40510000Y-53700000D01*
X30710000Y-65500000D02*
X30710000Y-53700000D01*
X40510000Y-53700000D02*
X40510000Y-65500000D01*
X40510000Y-65500000D02*
X30710000Y-65500000D01*
D14*
X27910000Y-55200000D02*
G75*
G02*
X28010000Y-55200000I50000J0D01*
G01*
X28010000Y-55200000D02*
G75*
G02*
X27910000Y-55200000I-50000J0D01*
G01*
D12*
%TO.C,C1*%
X44100000Y-61484419D02*
X44100000Y-61765581D01*
X45120000Y-61484419D02*
X45120000Y-61765581D01*
%TD*%
%LPC*%
D16*
%TO.C,R5*%
X24900000Y-55200000D03*
X26550000Y-55200000D03*
%TD*%
D17*
%TO.C,R4*%
X26550000Y-56700000D03*
X24900000Y-56700000D03*
%TD*%
D18*
%TO.C,H3*%
X45720000Y-50800000D03*
%TD*%
%TO.C,H2*%
X45720000Y-68580000D03*
%TD*%
D16*
%TO.C,R2*%
X24900000Y-59700000D03*
X26550000Y-59700000D03*
%TD*%
D19*
%TO.C,J1*%
X29210000Y-50800000D03*
D20*
X31750000Y-50800000D03*
X34289999Y-50800000D03*
X36830000Y-50800000D03*
X39370000Y-50800000D03*
X41910000Y-50800000D03*
%TD*%
D19*
%TO.C,J2*%
X41910000Y-68580000D03*
D20*
X39370000Y-68580000D03*
X36830001Y-68580000D03*
X34290000Y-68580000D03*
X31750000Y-68580000D03*
X29210000Y-68580000D03*
%TD*%
D17*
%TO.C,R3*%
X26550000Y-58200000D03*
X24900000Y-58200000D03*
%TD*%
D21*
%TO.C,C4*%
X44610000Y-63925000D03*
X44610000Y-65475000D03*
%TD*%
D22*
%TO.C,R1*%
X46200000Y-59425000D03*
X46200000Y-57775000D03*
%TD*%
D18*
%TO.C,H1*%
X25400000Y-68580000D03*
%TD*%
D23*
%TO.C,C3*%
X44610000Y-59375000D03*
X44610000Y-57825000D03*
%TD*%
D24*
%TO.C,D1*%
X25000000Y-53700000D03*
X26575000Y-53700000D03*
%TD*%
D21*
%TO.C,C5*%
X26500000Y-64200000D03*
X26500000Y-65750000D03*
%TD*%
D18*
%TO.C,H4*%
X25400000Y-50800000D03*
%TD*%
D21*
%TO.C,C2*%
X26500000Y-61175000D03*
X26500000Y-62725000D03*
%TD*%
D25*
%TO.C,U1*%
X29445000Y-55200000D03*
X29445000Y-56000000D03*
X29445000Y-56800000D03*
X29445000Y-57600000D03*
X29445000Y-58400000D03*
X29445000Y-59200000D03*
X29445000Y-60000000D03*
X29445000Y-60800000D03*
X29445000Y-61600000D03*
X29445000Y-62400000D03*
X29445000Y-63200000D03*
X29445000Y-64000000D03*
X41775000Y-64000000D03*
X41775000Y-63200000D03*
X41775000Y-62400000D03*
X41775000Y-61600000D03*
X41775000Y-60800000D03*
X41775000Y-60000000D03*
X41775000Y-59200000D03*
X41775000Y-58400000D03*
X41775000Y-57600000D03*
X41775000Y-56800000D03*
X41775000Y-56000000D03*
X41775000Y-55200000D03*
%TD*%
D21*
%TO.C,C1*%
X44610000Y-60850000D03*
X44610000Y-62400000D03*
%TD*%
%LPD*%
M02*
