M48
; DRILL file {KiCad 9.0.2} date 2025-06-17T16:18:41-0400
; FORMAT={-:-/ absolute / inch / decimal}
; #@! TF.CreationDate,2025-06-17T16:18:41-04:00
; #@! TF.GenerationSoftware,Kicad,Pcbnew,9.0.2
; #@! TF.FileFunction,Plated,1,2,PTH
FMAT,2
INCH
; #@! TA.AperFunction,Plated,PTH,ViaDrill
T1C0.0118
; #@! TA.AperFunction,Plated,PTH,ComponentDrill
T2C0.0394
; #@! TA.AperFunction,Plated,PTH,ComponentDrill
T3C0.0866
%
G90
G05
T1
X0.937Y-2.2835
X0.9449Y-2.1693
X0.9646Y-2.4961
X1.0866Y-2.4449
X1.0984Y-2.2559
X1.0984Y-2.3071
X1.122Y-2.5748
X1.1339Y-2.1142
X1.2402Y-2.3937
X1.2835Y-2.2992
X1.2874Y-2.6181
X1.311Y-2.5118
X1.4764Y-2.4567
X1.5039Y-2.563
X1.5315Y-2.4646
X1.6457Y-2.1142
X1.6496Y-2.5591
X1.7087Y-2.374
X1.7874Y-2.2441
X1.8465Y-2.5945
T2
X1.15Y-2.0
X1.15Y-2.7
X1.25Y-2.0
X1.25Y-2.7
X1.35Y-2.0
X1.35Y-2.7
X1.45Y-2.0
X1.45Y-2.7
X1.55Y-2.0
X1.55Y-2.7
X1.65Y-2.0
X1.65Y-2.7
T3
X1.0Y-2.0
X1.0Y-2.7
X1.8Y-2.0
X1.8Y-2.7
M30
