%TF.GenerationSoftware,KiCad,Pcbnew,9.0.1*%
%TF.CreationDate,2025-06-14T19:14:14-04:00*%
%TF.ProjectId,SCH16TBreakout,53434831-3654-4427-9265-616b6f75742e,rev?*%
%TF.SameCoordinates,Original*%
%TF.FileFunction,Soldermask,Top*%
%TF.FilePolarity,Negative*%
%FSLAX46Y46*%
G04 Gerber Fmt 4.6, Leading zero omitted, Abs format (unit mm)*
G04 Created by KiCad (PCBNEW 9.0.1) date 2025-06-14 19:14:14*
%MOMM*%
%LPD*%
G01*
G04 APERTURE LIST*
G04 Aperture macros list*
%AMRoundRect*
0 Rectangle with rounded corners*
0 $1 Rounding radius*
0 $2 $3 $4 $5 $6 $7 $8 $9 X,Y pos of 4 corners*
0 Add a 4 corners polygon primitive as box body*
4,1,4,$2,$3,$4,$5,$6,$7,$8,$9,$2,$3,0*
0 Add four circle primitives for the rounded corners*
1,1,$1+$1,$2,$3*
1,1,$1+$1,$4,$5*
1,1,$1+$1,$6,$7*
1,1,$1+$1,$8,$9*
0 Add four rect primitives between the rounded corners*
20,1,$1+$1,$2,$3,$4,$5,0*
20,1,$1+$1,$4,$5,$6,$7,0*
20,1,$1+$1,$6,$7,$8,$9,0*
20,1,$1+$1,$8,$9,$2,$3,0*%
G04 Aperture macros list end*
%ADD10RoundRect,0.200000X-0.200000X-0.275000X0.200000X-0.275000X0.200000X0.275000X-0.200000X0.275000X0*%
%ADD11RoundRect,0.200000X0.200000X0.275000X-0.200000X0.275000X-0.200000X-0.275000X0.200000X-0.275000X0*%
%ADD12C,3.500000*%
%ADD13R,1.700000X1.700000*%
%ADD14C,1.700000*%
%ADD15RoundRect,0.225000X-0.250000X0.225000X-0.250000X-0.225000X0.250000X-0.225000X0.250000X0.225000X0*%
%ADD16RoundRect,0.200000X0.275000X-0.200000X0.275000X0.200000X-0.275000X0.200000X-0.275000X-0.200000X0*%
%ADD17RoundRect,0.225000X0.250000X-0.225000X0.250000X0.225000X-0.250000X0.225000X-0.250000X-0.225000X0*%
%ADD18RoundRect,0.218750X-0.218750X-0.256250X0.218750X-0.256250X0.218750X0.256250X-0.218750X0.256250X0*%
%ADD19R,1.870000X0.500000*%
G04 APERTURE END LIST*
D10*
%TO.C,R5*%
X24900000Y-55200000D03*
X26550000Y-55200000D03*
%TD*%
D11*
%TO.C,R4*%
X26550000Y-56700000D03*
X24900000Y-56700000D03*
%TD*%
D12*
%TO.C,H3*%
X45720000Y-50800000D03*
%TD*%
%TO.C,H2*%
X45720000Y-68580000D03*
%TD*%
D10*
%TO.C,R2*%
X24900000Y-59700000D03*
X26550000Y-59700000D03*
%TD*%
D13*
%TO.C,J1*%
X29210000Y-50800000D03*
D14*
X31750000Y-50800000D03*
X34289999Y-50800000D03*
X36830000Y-50800000D03*
X39370000Y-50800000D03*
X41910000Y-50800000D03*
%TD*%
D13*
%TO.C,J2*%
X41910000Y-68580000D03*
D14*
X39370000Y-68580000D03*
X36830001Y-68580000D03*
X34290000Y-68580000D03*
X31750000Y-68580000D03*
X29210000Y-68580000D03*
%TD*%
D11*
%TO.C,R3*%
X26550000Y-58200000D03*
X24900000Y-58200000D03*
%TD*%
D15*
%TO.C,C4*%
X44610000Y-63925000D03*
X44610000Y-65475000D03*
%TD*%
D16*
%TO.C,R1*%
X46200000Y-59425000D03*
X46200000Y-57775000D03*
%TD*%
D12*
%TO.C,H1*%
X25400000Y-68580000D03*
%TD*%
D17*
%TO.C,C3*%
X44610000Y-59375000D03*
X44610000Y-57825000D03*
%TD*%
D18*
%TO.C,D1*%
X25000000Y-53700000D03*
X26575000Y-53700000D03*
%TD*%
D15*
%TO.C,C5*%
X26500000Y-64200000D03*
X26500000Y-65750000D03*
%TD*%
D12*
%TO.C,H4*%
X25400000Y-50800000D03*
%TD*%
D15*
%TO.C,C2*%
X26500000Y-61175000D03*
X26500000Y-62725000D03*
%TD*%
D19*
%TO.C,U1*%
X29445000Y-55200000D03*
X29445000Y-56000000D03*
X29445000Y-56800000D03*
X29445000Y-57600000D03*
X29445000Y-58400000D03*
X29445000Y-59200000D03*
X29445000Y-60000000D03*
X29445000Y-60800000D03*
X29445000Y-61600000D03*
X29445000Y-62400000D03*
X29445000Y-63200000D03*
X29445000Y-64000000D03*
X41775000Y-64000000D03*
X41775000Y-63200000D03*
X41775000Y-62400000D03*
X41775000Y-61600000D03*
X41775000Y-60800000D03*
X41775000Y-60000000D03*
X41775000Y-59200000D03*
X41775000Y-58400000D03*
X41775000Y-57600000D03*
X41775000Y-56800000D03*
X41775000Y-56000000D03*
X41775000Y-55200000D03*
%TD*%
D15*
%TO.C,C1*%
X44610000Y-60850000D03*
X44610000Y-62400000D03*
%TD*%
M02*
