%TF.GenerationSoftware,KiCad,Pcbnew,9.0.1*%
%TF.CreationDate,2025-06-14T19:14:14-04:00*%
%TF.ProjectId,SCH16TBreakout,53434831-3654-4427-9265-616b6f75742e,rev?*%
%TF.SameCoordinates,Original*%
%TF.FileFunction,Copper,L1,Top*%
%TF.FilePolarity,Positive*%
%FSLAX46Y46*%
G04 Gerber Fmt 4.6, Leading zero omitted, Abs format (unit mm)*
G04 Created by KiCad (PCBNEW 9.0.1) date 2025-06-14 19:14:14*
%MOMM*%
%LPD*%
G01*
G04 APERTURE LIST*
G04 Aperture macros list*
%AMRoundRect*
0 Rectangle with rounded corners*
0 $1 Rounding radius*
0 $2 $3 $4 $5 $6 $7 $8 $9 X,Y pos of 4 corners*
0 Add a 4 corners polygon primitive as box body*
4,1,4,$2,$3,$4,$5,$6,$7,$8,$9,$2,$3,0*
0 Add four circle primitives for the rounded corners*
1,1,$1+$1,$2,$3*
1,1,$1+$1,$4,$5*
1,1,$1+$1,$6,$7*
1,1,$1+$1,$8,$9*
0 Add four rect primitives between the rounded corners*
20,1,$1+$1,$2,$3,$4,$5,0*
20,1,$1+$1,$4,$5,$6,$7,0*
20,1,$1+$1,$6,$7,$8,$9,0*
20,1,$1+$1,$8,$9,$2,$3,0*%
G04 Aperture macros list end*
%TA.AperFunction,SMDPad,CuDef*%
%ADD10RoundRect,0.200000X-0.200000X-0.275000X0.200000X-0.275000X0.200000X0.275000X-0.200000X0.275000X0*%
%TD*%
%TA.AperFunction,SMDPad,CuDef*%
%ADD11RoundRect,0.200000X0.200000X0.275000X-0.200000X0.275000X-0.200000X-0.275000X0.200000X-0.275000X0*%
%TD*%
%TA.AperFunction,ComponentPad*%
%ADD12C,3.500000*%
%TD*%
%TA.AperFunction,ComponentPad*%
%ADD13R,1.700000X1.700000*%
%TD*%
%TA.AperFunction,ComponentPad*%
%ADD14C,1.700000*%
%TD*%
%TA.AperFunction,SMDPad,CuDef*%
%ADD15RoundRect,0.225000X-0.250000X0.225000X-0.250000X-0.225000X0.250000X-0.225000X0.250000X0.225000X0*%
%TD*%
%TA.AperFunction,SMDPad,CuDef*%
%ADD16RoundRect,0.200000X0.275000X-0.200000X0.275000X0.200000X-0.275000X0.200000X-0.275000X-0.200000X0*%
%TD*%
%TA.AperFunction,SMDPad,CuDef*%
%ADD17RoundRect,0.225000X0.250000X-0.225000X0.250000X0.225000X-0.250000X0.225000X-0.250000X-0.225000X0*%
%TD*%
%TA.AperFunction,SMDPad,CuDef*%
%ADD18RoundRect,0.218750X-0.218750X-0.256250X0.218750X-0.256250X0.218750X0.256250X-0.218750X0.256250X0*%
%TD*%
%TA.AperFunction,SMDPad,CuDef*%
%ADD19R,1.870000X0.500000*%
%TD*%
%TA.AperFunction,ViaPad*%
%ADD20C,0.600000*%
%TD*%
%TA.AperFunction,Conductor*%
%ADD21C,0.200000*%
%TD*%
G04 APERTURE END LIST*
D10*
%TO.P,R5,1*%
%TO.N,+3V3*%
X24900000Y-55200000D03*
%TO.P,R5,2*%
%TO.N,Net-(D1-A)*%
X26550000Y-55200000D03*
%TD*%
D11*
%TO.P,R4,1*%
%TO.N,/TA9*%
X26550000Y-56700000D03*
%TO.P,R4,2*%
%TO.N,GND*%
X24900000Y-56700000D03*
%TD*%
D12*
%TO.P,H3,1,1*%
%TO.N,GND*%
X45720000Y-50800000D03*
%TD*%
%TO.P,H2,1,1*%
%TO.N,GND*%
X45720000Y-68580000D03*
%TD*%
D10*
%TO.P,R2,1*%
%TO.N,+3V3*%
X24900000Y-59700000D03*
%TO.P,R2,2*%
%TO.N,/RST*%
X26550000Y-59700000D03*
%TD*%
D13*
%TO.P,J1,1,Pin_1*%
%TO.N,unconnected-(J1-Pin_1-Pad1)*%
X29210000Y-50800000D03*
D14*
%TO.P,J1,2,Pin_2*%
%TO.N,/TA9*%
X31750000Y-50800000D03*
%TO.P,J1,3,Pin_3*%
%TO.N,/TA8*%
X34289999Y-50800000D03*
%TO.P,J1,4,Pin_4*%
%TO.N,/RST*%
X36830000Y-50800000D03*
%TO.P,J1,5,Pin_5*%
%TO.N,/MOSI*%
X39370000Y-50800000D03*
%TO.P,J1,6,Pin_6*%
%TO.N,/~{CS}*%
X41910000Y-50800000D03*
%TD*%
D13*
%TO.P,J2,1,Pin_1*%
%TO.N,/DRY*%
X41910000Y-68580000D03*
D14*
%TO.P,J2,2,Pin_2*%
%TO.N,/MISO*%
X39370000Y-68580000D03*
%TO.P,J2,3,Pin_3*%
%TO.N,/SCK*%
X36830001Y-68580000D03*
%TO.P,J2,4,Pin_4*%
%TO.N,GND*%
X34290000Y-68580000D03*
%TO.P,J2,5,Pin_5*%
%TO.N,unconnected-(J2-Pin_5-Pad5)*%
X31750000Y-68580000D03*
%TO.P,J2,6,Pin_6*%
%TO.N,+3V3*%
X29210000Y-68580000D03*
%TD*%
D11*
%TO.P,R3,1*%
%TO.N,/TA8*%
X26550000Y-58200000D03*
%TO.P,R3,2*%
%TO.N,GND*%
X24900000Y-58200000D03*
%TD*%
D15*
%TO.P,C4,1*%
%TO.N,Net-(U1-VREGD)*%
X44610000Y-63925000D03*
%TO.P,C4,2*%
%TO.N,GND*%
X44610000Y-65475000D03*
%TD*%
D16*
%TO.P,R1,1*%
%TO.N,+3V3*%
X46200000Y-59425000D03*
%TO.P,R1,2*%
%TO.N,/~{CS}*%
X46200000Y-57775000D03*
%TD*%
D12*
%TO.P,H1,1,1*%
%TO.N,GND*%
X25400000Y-68580000D03*
%TD*%
D17*
%TO.P,C3,1*%
%TO.N,+3V3*%
X44610000Y-59375000D03*
%TO.P,C3,2*%
%TO.N,GND*%
X44610000Y-57825000D03*
%TD*%
D18*
%TO.P,D1,1,K*%
%TO.N,GND*%
X25000000Y-53700000D03*
%TO.P,D1,2,A*%
%TO.N,Net-(D1-A)*%
X26575000Y-53700000D03*
%TD*%
D15*
%TO.P,C5,1*%
%TO.N,Net-(U1-VREGA)*%
X26500000Y-64200000D03*
%TO.P,C5,2*%
%TO.N,GND*%
X26500000Y-65750000D03*
%TD*%
D12*
%TO.P,H4,1,1*%
%TO.N,GND*%
X25400000Y-50800000D03*
%TD*%
D15*
%TO.P,C2,1*%
%TO.N,+3V3*%
X26500000Y-61175000D03*
%TO.P,C2,2*%
%TO.N,GND*%
X26500000Y-62725000D03*
%TD*%
D19*
%TO.P,U1,1,HEATSINK_1*%
%TO.N,GND*%
X29445000Y-55200000D03*
%TO.P,U1,2,N.C.*%
%TO.N,unconnected-(U1-N.C.-Pad2)*%
X29445000Y-56000000D03*
%TO.P,U1,3,TA9*%
%TO.N,/TA9*%
X29445000Y-56800000D03*
%TO.P,U1,4,TA8*%
%TO.N,/TA8*%
X29445000Y-57600000D03*
%TO.P,U1,5,RESERVED_1*%
%TO.N,GND*%
X29445000Y-58400000D03*
%TO.P,U1,6,EXTRESN*%
%TO.N,/RST*%
X29445000Y-59200000D03*
%TO.P,U1,7,RESERVED_2*%
%TO.N,GND*%
X29445000Y-60000000D03*
%TO.P,U1,8,V3P3_1*%
%TO.N,+3V3*%
X29445000Y-60800000D03*
%TO.P,U1,9,GND_1*%
%TO.N,GND*%
X29445000Y-61600000D03*
%TO.P,U1,10,VREGA2*%
%TO.N,Net-(U1-VREGA)*%
X29445000Y-62400000D03*
%TO.P,U1,11,VREGA*%
X29445000Y-63200000D03*
%TO.P,U1,12,GND_2*%
%TO.N,GND*%
X29445000Y-64000000D03*
%TO.P,U1,13,GND_3*%
X41775000Y-64000000D03*
%TO.P,U1,14,VREGD2*%
%TO.N,Net-(U1-VREGD)*%
X41775000Y-63200000D03*
%TO.P,U1,15,VREGD*%
X41775000Y-62400000D03*
%TO.P,U1,16,GND_4*%
%TO.N,GND*%
X41775000Y-61600000D03*
%TO.P,U1,17,V3P3_2*%
%TO.N,+3V3*%
X41775000Y-60800000D03*
%TO.P,U1,18,VDDIO*%
X41775000Y-60000000D03*
%TO.P,U1,19,MISO*%
%TO.N,/MISO*%
X41775000Y-59200000D03*
%TO.P,U1,20,DRY_SYNC*%
%TO.N,/DRY*%
X41775000Y-58400000D03*
%TO.P,U1,21,SCK*%
%TO.N,/SCK*%
X41775000Y-57600000D03*
%TO.P,U1,22,CS*%
%TO.N,/~{CS}*%
X41775000Y-56800000D03*
%TO.P,U1,23,MOSI*%
%TO.N,/MOSI*%
X41775000Y-56000000D03*
%TO.P,U1,24,HEATSINK_2*%
%TO.N,GND*%
X41775000Y-55200000D03*
%TD*%
D15*
%TO.P,C1,1*%
%TO.N,+3V3*%
X44610000Y-60850000D03*
%TO.P,C1,2*%
%TO.N,GND*%
X44610000Y-62400000D03*
%TD*%
D20*
%TO.N,GND*%
X45400000Y-57000000D03*
X32600000Y-58400000D03*
X33300000Y-63800000D03*
X46900000Y-65900000D03*
X28800000Y-53700000D03*
X23800000Y-58000000D03*
X41800000Y-53700000D03*
X28500000Y-65400000D03*
X27600000Y-62100000D03*
%TO.N,+3V3*%
X24000000Y-55100000D03*
X31500000Y-60800000D03*
X43400000Y-60300000D03*
%TO.N,/DRY*%
X38200000Y-65100000D03*
%TD*%
D21*
%TO.N,+3V3*%
X26875000Y-60800000D02*
X26500000Y-61175000D01*
X29210000Y-68580000D02*
X31500000Y-66290000D01*
X26475000Y-61175000D02*
X26500000Y-61175000D01*
X41675000Y-60900000D02*
X41775000Y-60800000D01*
X31500000Y-66290000D02*
X31500000Y-60800000D01*
X24900000Y-59600000D02*
X26475000Y-61175000D01*
X29445000Y-60800000D02*
X31500000Y-60800000D01*
X29445000Y-60800000D02*
X26875000Y-60800000D01*
X24800000Y-55100000D02*
X24900000Y-55200000D01*
X24000000Y-55100000D02*
X24800000Y-55100000D01*
X44509999Y-60800000D02*
X44610000Y-60900001D01*
X44660000Y-59425000D02*
X44610000Y-59375000D01*
%TO.N,Net-(U1-VREGD)*%
X43885000Y-63200000D02*
X44610000Y-63925000D01*
X41775000Y-63200000D02*
X43885000Y-63200000D01*
X41775000Y-63200000D02*
X41775000Y-62400000D01*
%TO.N,Net-(U1-VREGA)*%
X27500000Y-63200000D02*
X29445000Y-63200000D01*
X26500000Y-64200000D02*
X27500000Y-63200000D01*
X29445000Y-63200000D02*
X29445000Y-62400000D01*
%TO.N,Net-(D1-A)*%
X26575000Y-53700000D02*
X26575000Y-55175000D01*
X26575000Y-55175000D02*
X26550000Y-55200000D01*
%TO.N,/~{CS}*%
X46200000Y-56340000D02*
X44560000Y-54700000D01*
X44560000Y-54700000D02*
X44560000Y-53450000D01*
X46200000Y-57775000D02*
X46200000Y-56340000D01*
X44560000Y-56200000D02*
X44560000Y-54700000D01*
X43960000Y-56800000D02*
X41775000Y-56800000D01*
X41910000Y-50800000D02*
X44560000Y-53450000D01*
X44560000Y-56200000D02*
X43960000Y-56800000D01*
%TO.N,/RST*%
X26550000Y-59600000D02*
X26950000Y-59200000D01*
X26950000Y-59200000D02*
X29445000Y-59200000D01*
X36830000Y-50800000D02*
X36830000Y-52802000D01*
X36830000Y-52802000D02*
X30432000Y-59200000D01*
X30432000Y-59200000D02*
X29445000Y-59200000D01*
X29345000Y-59300000D02*
X29445000Y-59200000D01*
%TO.N,/TA9*%
X29345000Y-56700000D02*
X29445000Y-56800000D01*
X29445000Y-56800000D02*
X30580000Y-56800000D01*
X30580000Y-56800000D02*
X31750000Y-55630000D01*
X26550000Y-56700000D02*
X29345000Y-56700000D01*
X31750000Y-55630000D02*
X31750000Y-50800000D01*
%TO.N,/TA8*%
X34289999Y-54110001D02*
X30800000Y-57600000D01*
X34289999Y-50800000D02*
X34289999Y-54110001D01*
X29445000Y-57600000D02*
X27150000Y-57600000D01*
X30800000Y-57600000D02*
X29445000Y-57600000D01*
X27150000Y-57600000D02*
X26550000Y-58200000D01*
%TO.N,/MOSI*%
X40640000Y-56000000D02*
X41775000Y-56000000D01*
X39370000Y-54730000D02*
X40640000Y-56000000D01*
X39370000Y-50800000D02*
X39370000Y-54730000D01*
%TO.N,/DRY*%
X38200000Y-65100000D02*
X38200000Y-60840000D01*
X40640000Y-58400000D02*
X41775000Y-58400000D01*
X38200000Y-60840000D02*
X40640000Y-58400000D01*
%TO.N,/SCK*%
X36830001Y-61409999D02*
X40640000Y-57600000D01*
X40640000Y-57600000D02*
X41775000Y-57600000D01*
X36830001Y-68580000D02*
X36830001Y-61409999D01*
%TO.N,/MISO*%
X39370000Y-60330000D02*
X40500000Y-59200000D01*
X39370000Y-68580000D02*
X39370000Y-60330000D01*
X40500000Y-59200000D02*
X41775000Y-59200000D01*
%TD*%
%TA.AperFunction,Conductor*%
%TO.N,+3V3*%
G36*
X46959191Y-58718907D02*
G01*
X46995155Y-58768407D01*
X47000000Y-58799000D01*
X47000000Y-60001000D01*
X46981093Y-60059191D01*
X46931593Y-60095155D01*
X46901000Y-60100000D01*
X45400000Y-60100000D01*
X45400000Y-60100001D01*
X45400000Y-61501000D01*
X45381093Y-61559191D01*
X45331593Y-61595155D01*
X45301000Y-61600000D01*
X43819065Y-61600000D01*
X43782297Y-61592919D01*
X42897978Y-61239191D01*
X42862971Y-61210814D01*
X42861445Y-61212341D01*
X42854551Y-61205447D01*
X42788233Y-61161134D01*
X42788231Y-61161133D01*
X42788228Y-61161132D01*
X42788227Y-61161132D01*
X42729758Y-61149501D01*
X42729748Y-61149500D01*
X40820252Y-61149500D01*
X40820251Y-61149500D01*
X40820241Y-61149501D01*
X40761772Y-61161132D01*
X40761770Y-61161132D01*
X40761769Y-61161133D01*
X40761767Y-61161133D01*
X40761765Y-61161135D01*
X40728571Y-61183315D01*
X40673569Y-61200000D01*
X40599000Y-61200000D01*
X40540809Y-61181093D01*
X40504845Y-61131593D01*
X40500000Y-61101000D01*
X40500000Y-59699000D01*
X40518907Y-59640809D01*
X40568407Y-59604845D01*
X40599000Y-59600000D01*
X40673569Y-59600000D01*
X40728571Y-59616685D01*
X40749482Y-59630656D01*
X40761769Y-59638867D01*
X40806231Y-59647711D01*
X40820241Y-59650498D01*
X40820246Y-59650498D01*
X40820252Y-59650500D01*
X40820253Y-59650500D01*
X42729747Y-59650500D01*
X42729748Y-59650500D01*
X42788231Y-59638867D01*
X42809517Y-59624643D01*
X42821429Y-59616685D01*
X42876431Y-59600000D01*
X42999999Y-59600000D01*
X43000000Y-59600000D01*
X43000000Y-58799000D01*
X43018907Y-58740809D01*
X43068407Y-58704845D01*
X43099000Y-58700000D01*
X46901000Y-58700000D01*
X46959191Y-58718907D01*
G37*
%TD.AperFunction*%
%TD*%
%TA.AperFunction,Conductor*%
%TO.N,GND*%
G36*
X45029504Y-55594475D02*
G01*
X45870504Y-56435475D01*
X45898281Y-56489992D01*
X45899500Y-56505479D01*
X45899500Y-57088992D01*
X45880593Y-57147183D01*
X45831093Y-57183147D01*
X45815987Y-57186773D01*
X45799699Y-57189352D01*
X45799695Y-57189354D01*
X45686659Y-57246949D01*
X45596949Y-57336659D01*
X45539354Y-57449695D01*
X45524500Y-57543477D01*
X45524500Y-58006520D01*
X45524501Y-58006523D01*
X45539352Y-58100299D01*
X45539354Y-58100304D01*
X45596950Y-58213342D01*
X45686658Y-58303050D01*
X45686660Y-58303051D01*
X45694981Y-58307291D01*
X45738246Y-58350555D01*
X45747817Y-58410987D01*
X45720039Y-58465504D01*
X45665523Y-58493281D01*
X45650036Y-58494500D01*
X43099000Y-58494500D01*
X43066856Y-58497030D01*
X43036273Y-58501873D01*
X43026075Y-58503605D01*
X42965540Y-58494707D01*
X42921796Y-58451927D01*
X42910500Y-58406002D01*
X42910500Y-58130253D01*
X42910498Y-58130241D01*
X42904383Y-58099500D01*
X42898867Y-58071769D01*
X42887663Y-58055002D01*
X42871054Y-57996115D01*
X42887664Y-57944997D01*
X42898867Y-57928231D01*
X42910500Y-57869748D01*
X42910500Y-57330252D01*
X42898867Y-57271769D01*
X42887663Y-57255002D01*
X42880345Y-57229056D01*
X42871050Y-57203762D01*
X42872132Y-57199940D01*
X42871054Y-57196115D01*
X42887732Y-57144895D01*
X42888067Y-57144395D01*
X42936164Y-57106576D01*
X42970313Y-57100500D01*
X43999563Y-57100500D01*
X43999563Y-57100499D01*
X44075989Y-57080021D01*
X44144511Y-57040460D01*
X44200460Y-56984511D01*
X44800460Y-56384511D01*
X44813957Y-56361133D01*
X44840021Y-56315989D01*
X44860500Y-56239562D01*
X44860500Y-55664479D01*
X44879407Y-55606288D01*
X44928907Y-55570324D01*
X44990093Y-55570324D01*
X45029504Y-55594475D01*
G37*
%TD.AperFunction*%
%TA.AperFunction,Conductor*%
G36*
X46263522Y-48660752D02*
G01*
X46290016Y-48662646D01*
X46480577Y-48676276D01*
X46494540Y-48678283D01*
X46703721Y-48723788D01*
X46717261Y-48727764D01*
X46917833Y-48802574D01*
X46930659Y-48808431D01*
X47118545Y-48911024D01*
X47130417Y-48918654D01*
X47301781Y-49046936D01*
X47312456Y-49056185D01*
X47463814Y-49207543D01*
X47473063Y-49218218D01*
X47601345Y-49389582D01*
X47608977Y-49401458D01*
X47711565Y-49589334D01*
X47717429Y-49602174D01*
X47792233Y-49802731D01*
X47796213Y-49816284D01*
X47841714Y-50025449D01*
X47843724Y-50039430D01*
X47859248Y-50256476D01*
X47859500Y-50263539D01*
X47859500Y-69116460D01*
X47859248Y-69123523D01*
X47843724Y-69340569D01*
X47841714Y-69354550D01*
X47796213Y-69563715D01*
X47792233Y-69577268D01*
X47717429Y-69777825D01*
X47711561Y-69790674D01*
X47608982Y-69978534D01*
X47601345Y-69990417D01*
X47473063Y-70161781D01*
X47463814Y-70172456D01*
X47312456Y-70323814D01*
X47301781Y-70333063D01*
X47130417Y-70461345D01*
X47118534Y-70468982D01*
X46930674Y-70571561D01*
X46917825Y-70577429D01*
X46717268Y-70652233D01*
X46703715Y-70656213D01*
X46494550Y-70701714D01*
X46480569Y-70703724D01*
X46263523Y-70719248D01*
X46256460Y-70719500D01*
X24863540Y-70719500D01*
X24856477Y-70719248D01*
X24639430Y-70703724D01*
X24625449Y-70701714D01*
X24416284Y-70656213D01*
X24402731Y-70652233D01*
X24202174Y-70577429D01*
X24189334Y-70571565D01*
X24001458Y-70468977D01*
X23989582Y-70461345D01*
X23818218Y-70333063D01*
X23807543Y-70323814D01*
X23656185Y-70172456D01*
X23646936Y-70161781D01*
X23518654Y-69990417D01*
X23511024Y-69978545D01*
X23408431Y-69790659D01*
X23402574Y-69777833D01*
X23327764Y-69577261D01*
X23323788Y-69563721D01*
X23278283Y-69354540D01*
X23276276Y-69340577D01*
X23260752Y-69123522D01*
X23260500Y-69116460D01*
X23260500Y-63941510D01*
X25824500Y-63941510D01*
X25824500Y-64458489D01*
X25840281Y-64558125D01*
X25840283Y-64558132D01*
X25901470Y-64678217D01*
X25901472Y-64678220D01*
X25996780Y-64773528D01*
X25996782Y-64773529D01*
X26116867Y-64834716D01*
X26116869Y-64834716D01*
X26116874Y-64834719D01*
X26192541Y-64846703D01*
X26216510Y-64850500D01*
X26216512Y-64850500D01*
X26783490Y-64850500D01*
X26804885Y-64847111D01*
X26883126Y-64834719D01*
X27003220Y-64773528D01*
X27098528Y-64678220D01*
X27159719Y-64558126D01*
X27175500Y-64458488D01*
X27175500Y-63990479D01*
X27194407Y-63932288D01*
X27204496Y-63920475D01*
X27595475Y-63529496D01*
X27649992Y-63501719D01*
X27665479Y-63500500D01*
X28249687Y-63500500D01*
X28307878Y-63519407D01*
X28332002Y-63544498D01*
X28365445Y-63594548D01*
X28365448Y-63594552D01*
X28431769Y-63638867D01*
X28464990Y-63645475D01*
X28490241Y-63650498D01*
X28490246Y-63650498D01*
X28490252Y-63650500D01*
X28490253Y-63650500D01*
X30399747Y-63650500D01*
X30399748Y-63650500D01*
X30458231Y-63638867D01*
X30524552Y-63594552D01*
X30568867Y-63528231D01*
X30580500Y-63469748D01*
X30580500Y-62930252D01*
X30568867Y-62871769D01*
X30557663Y-62855001D01*
X30541054Y-62796115D01*
X30557664Y-62744997D01*
X30568867Y-62728231D01*
X30580500Y-62669748D01*
X30580500Y-62130252D01*
X30568867Y-62071769D01*
X30524552Y-62005448D01*
X30524548Y-62005445D01*
X30458233Y-61961134D01*
X30458231Y-61961133D01*
X30458228Y-61961132D01*
X30458227Y-61961132D01*
X30399758Y-61949501D01*
X30399748Y-61949500D01*
X28490252Y-61949500D01*
X28490251Y-61949500D01*
X28490241Y-61949501D01*
X28431772Y-61961132D01*
X28431766Y-61961134D01*
X28365451Y-62005445D01*
X28365445Y-62005451D01*
X28321134Y-62071766D01*
X28321132Y-62071772D01*
X28309501Y-62130241D01*
X28309500Y-62130253D01*
X28309500Y-62669746D01*
X28309501Y-62669758D01*
X28321132Y-62728227D01*
X28321133Y-62728231D01*
X28321134Y-62728232D01*
X28332337Y-62744999D01*
X28339636Y-62770880D01*
X28348944Y-62796101D01*
X28347846Y-62799993D01*
X28348945Y-62803887D01*
X28332343Y-62854991D01*
X28332009Y-62855491D01*
X28283964Y-62893377D01*
X28249687Y-62899500D01*
X27539562Y-62899500D01*
X27460438Y-62899500D01*
X27413661Y-62912033D01*
X27384007Y-62919979D01*
X27315493Y-62959536D01*
X26754525Y-63520504D01*
X26700008Y-63548281D01*
X26684521Y-63549500D01*
X26216510Y-63549500D01*
X26116874Y-63565281D01*
X26116867Y-63565283D01*
X25996782Y-63626470D01*
X25901470Y-63721782D01*
X25840283Y-63841867D01*
X25840281Y-63841874D01*
X25824500Y-63941510D01*
X23260500Y-63941510D01*
X23260500Y-59393477D01*
X24299500Y-59393477D01*
X24299500Y-60006520D01*
X24299501Y-60006523D01*
X24314352Y-60100299D01*
X24314354Y-60100304D01*
X24371950Y-60213342D01*
X24461658Y-60303050D01*
X24574696Y-60360646D01*
X24668481Y-60375500D01*
X25131518Y-60375499D01*
X25184434Y-60367118D01*
X25244864Y-60376689D01*
X25269924Y-60394895D01*
X25795504Y-60920475D01*
X25823281Y-60974992D01*
X25824500Y-60990479D01*
X25824500Y-61433489D01*
X25840281Y-61533125D01*
X25840283Y-61533132D01*
X25901470Y-61653217D01*
X25901472Y-61653220D01*
X25996780Y-61748528D01*
X25996782Y-61748529D01*
X26116867Y-61809716D01*
X26116869Y-61809716D01*
X26116874Y-61809719D01*
X26192541Y-61821703D01*
X26216510Y-61825500D01*
X26216512Y-61825500D01*
X26783490Y-61825500D01*
X26804885Y-61822111D01*
X26883126Y-61809719D01*
X27003220Y-61748528D01*
X27098528Y-61653220D01*
X27159719Y-61533126D01*
X27175500Y-61433488D01*
X27175500Y-61199500D01*
X27194407Y-61141309D01*
X27243907Y-61105345D01*
X27274500Y-61100500D01*
X28249687Y-61100500D01*
X28307878Y-61119407D01*
X28332002Y-61144498D01*
X28354600Y-61178317D01*
X28365448Y-61194552D01*
X28431769Y-61238867D01*
X28476231Y-61247711D01*
X28490241Y-61250498D01*
X28490246Y-61250498D01*
X28490252Y-61250500D01*
X28490253Y-61250500D01*
X30399747Y-61250500D01*
X30399748Y-61250500D01*
X30458231Y-61238867D01*
X30524552Y-61194552D01*
X30557998Y-61144498D01*
X30606049Y-61106619D01*
X30640313Y-61100500D01*
X31051679Y-61100500D01*
X31059276Y-61102968D01*
X31067166Y-61101719D01*
X31087821Y-61112243D01*
X31109870Y-61119407D01*
X31121676Y-61129490D01*
X31170505Y-61178319D01*
X31198281Y-61232834D01*
X31199500Y-61248321D01*
X31199500Y-66124520D01*
X31180593Y-66182711D01*
X31170504Y-66194524D01*
X29760292Y-67604736D01*
X29705775Y-67632513D01*
X29652402Y-67626196D01*
X29516418Y-67569869D01*
X29313467Y-67529500D01*
X29313465Y-67529500D01*
X29106535Y-67529500D01*
X29106532Y-67529500D01*
X28903581Y-67569869D01*
X28712402Y-67649058D01*
X28540348Y-67764020D01*
X28394020Y-67910348D01*
X28279058Y-68082402D01*
X28199869Y-68273581D01*
X28159500Y-68476532D01*
X28159500Y-68683467D01*
X28199869Y-68886418D01*
X28279058Y-69077597D01*
X28307391Y-69120000D01*
X28394023Y-69249655D01*
X28540345Y-69395977D01*
X28712402Y-69510941D01*
X28903580Y-69590130D01*
X29106535Y-69630500D01*
X29106536Y-69630500D01*
X29313464Y-69630500D01*
X29313465Y-69630500D01*
X29516420Y-69590130D01*
X29707598Y-69510941D01*
X29879655Y-69395977D01*
X30025977Y-69249655D01*
X30140941Y-69077598D01*
X30220130Y-68886420D01*
X30260500Y-68683465D01*
X30260500Y-68476535D01*
X30260499Y-68476532D01*
X30699500Y-68476532D01*
X30699500Y-68683467D01*
X30739869Y-68886418D01*
X30819058Y-69077597D01*
X30847391Y-69120000D01*
X30934023Y-69249655D01*
X31080345Y-69395977D01*
X31252402Y-69510941D01*
X31443580Y-69590130D01*
X31646535Y-69630500D01*
X31646536Y-69630500D01*
X31853464Y-69630500D01*
X31853465Y-69630500D01*
X32056420Y-69590130D01*
X32247598Y-69510941D01*
X32419655Y-69395977D01*
X32565977Y-69249655D01*
X32680941Y-69077598D01*
X32760130Y-68886420D01*
X32800500Y-68683465D01*
X32800500Y-68476535D01*
X32800499Y-68476532D01*
X35779501Y-68476532D01*
X35779501Y-68683467D01*
X35819870Y-68886418D01*
X35899059Y-69077597D01*
X35927392Y-69120000D01*
X36014024Y-69249655D01*
X36160346Y-69395977D01*
X36332403Y-69510941D01*
X36523581Y-69590130D01*
X36726536Y-69630500D01*
X36726537Y-69630500D01*
X36933465Y-69630500D01*
X36933466Y-69630500D01*
X37136421Y-69590130D01*
X37327599Y-69510941D01*
X37499656Y-69395977D01*
X37645978Y-69249655D01*
X37760942Y-69077598D01*
X37840131Y-68886420D01*
X37880501Y-68683465D01*
X37880501Y-68476535D01*
X37840131Y-68273580D01*
X37760942Y-68082402D01*
X37645978Y-67910345D01*
X37499656Y-67764023D01*
X37419181Y-67710252D01*
X37327599Y-67649059D01*
X37191614Y-67592731D01*
X37145089Y-67552994D01*
X37130501Y-67501267D01*
X37130501Y-61575477D01*
X37149408Y-61517286D01*
X37159491Y-61505479D01*
X37730496Y-60934473D01*
X37785013Y-60906697D01*
X37845445Y-60916268D01*
X37888710Y-60959533D01*
X37899500Y-61004478D01*
X37899500Y-64651679D01*
X37880593Y-64709870D01*
X37870509Y-64721676D01*
X37818658Y-64773528D01*
X37799497Y-64792689D01*
X37799496Y-64792690D01*
X37733609Y-64906809D01*
X37733608Y-64906814D01*
X37699500Y-65034108D01*
X37699500Y-65165892D01*
X37729579Y-65278151D01*
X37733609Y-65293190D01*
X37799496Y-65407309D01*
X37799498Y-65407311D01*
X37799500Y-65407314D01*
X37892686Y-65500500D01*
X37892688Y-65500501D01*
X37892690Y-65500503D01*
X38006810Y-65566390D01*
X38006808Y-65566390D01*
X38006812Y-65566391D01*
X38006814Y-65566392D01*
X38134108Y-65600500D01*
X38134110Y-65600500D01*
X38265890Y-65600500D01*
X38265892Y-65600500D01*
X38393186Y-65566392D01*
X38393188Y-65566390D01*
X38393190Y-65566390D01*
X38507309Y-65500503D01*
X38507309Y-65500502D01*
X38507314Y-65500500D01*
X38600500Y-65407314D01*
X38666392Y-65293186D01*
X38700500Y-65165892D01*
X38700500Y-65034108D01*
X38666392Y-64906814D01*
X38666390Y-64906811D01*
X38666390Y-64906809D01*
X38600503Y-64792690D01*
X38600501Y-64792688D01*
X38600500Y-64792686D01*
X38529494Y-64721680D01*
X38501719Y-64667166D01*
X38500500Y-64651679D01*
X38500500Y-61005479D01*
X38519407Y-60947288D01*
X38529496Y-60935475D01*
X38900496Y-60564475D01*
X38955013Y-60536698D01*
X39015445Y-60546269D01*
X39058710Y-60589534D01*
X39069500Y-60634479D01*
X39069500Y-67501267D01*
X39050593Y-67559458D01*
X39008387Y-67592731D01*
X38872401Y-67649059D01*
X38700348Y-67764020D01*
X38554020Y-67910348D01*
X38439058Y-68082402D01*
X38359869Y-68273581D01*
X38319500Y-68476532D01*
X38319500Y-68683467D01*
X38359869Y-68886418D01*
X38439058Y-69077597D01*
X38467391Y-69120000D01*
X38554023Y-69249655D01*
X38700345Y-69395977D01*
X38872402Y-69510941D01*
X39063580Y-69590130D01*
X39266535Y-69630500D01*
X39266536Y-69630500D01*
X39473464Y-69630500D01*
X39473465Y-69630500D01*
X39676420Y-69590130D01*
X39867598Y-69510941D01*
X40039655Y-69395977D01*
X40185977Y-69249655D01*
X40300941Y-69077598D01*
X40380130Y-68886420D01*
X40420500Y-68683465D01*
X40420500Y-68476535D01*
X40380130Y-68273580D01*
X40300941Y-68082402D01*
X40185977Y-67910345D01*
X40039655Y-67764023D01*
X39959181Y-67710253D01*
X40859500Y-67710253D01*
X40859500Y-69449746D01*
X40859501Y-69449758D01*
X40871132Y-69508227D01*
X40871134Y-69508233D01*
X40908207Y-69563715D01*
X40915448Y-69574552D01*
X40981769Y-69618867D01*
X41026231Y-69627711D01*
X41040241Y-69630498D01*
X41040246Y-69630498D01*
X41040252Y-69630500D01*
X41040253Y-69630500D01*
X42779747Y-69630500D01*
X42779748Y-69630500D01*
X42838231Y-69618867D01*
X42904552Y-69574552D01*
X42948867Y-69508231D01*
X42960500Y-69449748D01*
X42960500Y-67710252D01*
X42948867Y-67651769D01*
X42904552Y-67585448D01*
X42904548Y-67585445D01*
X42838233Y-67541134D01*
X42838231Y-67541133D01*
X42838228Y-67541132D01*
X42838227Y-67541132D01*
X42779758Y-67529501D01*
X42779748Y-67529500D01*
X41040252Y-67529500D01*
X41040251Y-67529500D01*
X41040241Y-67529501D01*
X40981772Y-67541132D01*
X40981766Y-67541134D01*
X40915451Y-67585445D01*
X40915445Y-67585451D01*
X40871134Y-67651766D01*
X40871132Y-67651772D01*
X40859501Y-67710241D01*
X40859500Y-67710253D01*
X39959181Y-67710253D01*
X39959180Y-67710252D01*
X39867598Y-67649059D01*
X39731613Y-67592731D01*
X39685088Y-67552994D01*
X39670500Y-67501267D01*
X39670500Y-62130253D01*
X40639500Y-62130253D01*
X40639500Y-62669746D01*
X40639501Y-62669758D01*
X40651132Y-62728227D01*
X40651133Y-62728231D01*
X40651134Y-62728232D01*
X40662337Y-62744999D01*
X40678945Y-62803887D01*
X40662337Y-62855001D01*
X40651134Y-62871767D01*
X40651132Y-62871772D01*
X40639501Y-62930241D01*
X40639500Y-62930250D01*
X40639500Y-63469746D01*
X40639501Y-63469758D01*
X40651132Y-63528227D01*
X40651134Y-63528233D01*
X40676949Y-63566867D01*
X40695448Y-63594552D01*
X40761769Y-63638867D01*
X40794990Y-63645475D01*
X40820241Y-63650498D01*
X40820246Y-63650498D01*
X40820252Y-63650500D01*
X40820253Y-63650500D01*
X42729747Y-63650500D01*
X42729748Y-63650500D01*
X42788231Y-63638867D01*
X42854552Y-63594552D01*
X42874780Y-63564278D01*
X42887998Y-63544498D01*
X42936049Y-63506619D01*
X42970313Y-63500500D01*
X43719521Y-63500500D01*
X43727118Y-63502968D01*
X43735008Y-63501719D01*
X43755663Y-63512243D01*
X43777712Y-63519407D01*
X43789525Y-63529496D01*
X43905504Y-63645475D01*
X43933281Y-63699992D01*
X43934500Y-63715479D01*
X43934500Y-64183489D01*
X43950281Y-64283125D01*
X43950283Y-64283132D01*
X44011470Y-64403217D01*
X44011472Y-64403220D01*
X44106780Y-64498528D01*
X44106782Y-64498529D01*
X44226867Y-64559716D01*
X44226869Y-64559716D01*
X44226874Y-64559719D01*
X44302541Y-64571703D01*
X44326510Y-64575500D01*
X44326512Y-64575500D01*
X44893490Y-64575500D01*
X44914885Y-64572111D01*
X44993126Y-64559719D01*
X44996253Y-64558126D01*
X45004849Y-64553745D01*
X45113220Y-64498528D01*
X45208528Y-64403220D01*
X45269719Y-64283126D01*
X45285500Y-64183488D01*
X45285500Y-63666512D01*
X45269719Y-63566874D01*
X45269716Y-63566869D01*
X45269716Y-63566867D01*
X45208529Y-63446782D01*
X45208528Y-63446780D01*
X45113220Y-63351472D01*
X45113217Y-63351470D01*
X44993132Y-63290283D01*
X44993127Y-63290281D01*
X44993126Y-63290281D01*
X44959913Y-63285020D01*
X44893490Y-63274500D01*
X44893488Y-63274500D01*
X44425479Y-63274500D01*
X44367288Y-63255593D01*
X44355476Y-63245504D01*
X44069513Y-62959542D01*
X44069511Y-62959540D01*
X44018782Y-62930252D01*
X44018763Y-62930241D01*
X44000990Y-62919979D01*
X44000988Y-62919978D01*
X43924564Y-62899500D01*
X43924562Y-62899500D01*
X42970313Y-62899500D01*
X42953660Y-62894089D01*
X42936164Y-62893424D01*
X42925285Y-62884869D01*
X42912122Y-62880593D01*
X42888067Y-62855605D01*
X42887732Y-62855105D01*
X42871050Y-62796238D01*
X42887664Y-62744997D01*
X42898867Y-62728231D01*
X42910500Y-62669748D01*
X42910500Y-62130252D01*
X42898867Y-62071769D01*
X42854552Y-62005448D01*
X42854548Y-62005445D01*
X42788233Y-61961134D01*
X42788231Y-61961133D01*
X42788228Y-61961132D01*
X42788227Y-61961132D01*
X42729758Y-61949501D01*
X42729748Y-61949500D01*
X40820252Y-61949500D01*
X40820251Y-61949500D01*
X40820241Y-61949501D01*
X40761772Y-61961132D01*
X40761766Y-61961134D01*
X40695451Y-62005445D01*
X40695445Y-62005451D01*
X40651134Y-62071766D01*
X40651132Y-62071772D01*
X40639501Y-62130241D01*
X40639500Y-62130253D01*
X39670500Y-62130253D01*
X39670500Y-60495479D01*
X39689407Y-60437288D01*
X39699496Y-60425475D01*
X40125496Y-59999475D01*
X40180013Y-59971698D01*
X40240445Y-59981269D01*
X40283710Y-60024534D01*
X40294500Y-60069479D01*
X40294500Y-61101000D01*
X40294997Y-61107309D01*
X40297030Y-61133143D01*
X40301883Y-61163793D01*
X40302646Y-61168281D01*
X40302647Y-61168286D01*
X40338591Y-61252382D01*
X40338592Y-61252383D01*
X40374556Y-61301883D01*
X40398797Y-61329628D01*
X40477307Y-61376536D01*
X40535498Y-61395443D01*
X40543126Y-61396651D01*
X40598996Y-61405500D01*
X40599000Y-61405500D01*
X40673573Y-61405500D01*
X40703396Y-61401075D01*
X40733224Y-61396651D01*
X40788226Y-61379966D01*
X40820913Y-61364505D01*
X40863241Y-61355000D01*
X42678176Y-61355000D01*
X42679372Y-61355388D01*
X42680579Y-61355029D01*
X42700048Y-61362106D01*
X42736367Y-61373907D01*
X42738293Y-61375343D01*
X42739102Y-61375961D01*
X42752169Y-61386379D01*
X42753206Y-61386741D01*
X42760028Y-61391955D01*
X42760353Y-61392427D01*
X42762251Y-61393705D01*
X42768573Y-61398830D01*
X42821657Y-61429993D01*
X42821662Y-61429995D01*
X42821666Y-61429997D01*
X43705971Y-61783719D01*
X43705976Y-61783721D01*
X43743435Y-61794711D01*
X43743439Y-61794711D01*
X43743440Y-61794712D01*
X43780201Y-61801792D01*
X43780211Y-61801793D01*
X43819053Y-61805499D01*
X43819059Y-61805499D01*
X43819065Y-61805500D01*
X43819067Y-61805500D01*
X45300993Y-61805500D01*
X45301000Y-61805500D01*
X45333144Y-61802970D01*
X45363737Y-61798125D01*
X45363748Y-61798123D01*
X45363793Y-61798116D01*
X45368281Y-61797353D01*
X45368280Y-61797353D01*
X45368287Y-61797352D01*
X45452383Y-61761408D01*
X45501883Y-61725444D01*
X45529628Y-61701203D01*
X45576536Y-61622693D01*
X45595443Y-61564502D01*
X45605500Y-61501000D01*
X45605500Y-60404500D01*
X45624407Y-60346309D01*
X45673907Y-60310345D01*
X45704500Y-60305500D01*
X46900993Y-60305500D01*
X46901000Y-60305500D01*
X46933144Y-60302970D01*
X46963737Y-60298125D01*
X46963748Y-60298123D01*
X46963793Y-60298116D01*
X46968281Y-60297353D01*
X46968280Y-60297353D01*
X46968287Y-60297352D01*
X47052383Y-60261408D01*
X47101883Y-60225444D01*
X47129628Y-60201203D01*
X47176536Y-60122693D01*
X47195443Y-60064502D01*
X47201773Y-60024534D01*
X47205500Y-60001003D01*
X47205500Y-58799006D01*
X47205500Y-58799000D01*
X47202970Y-58766856D01*
X47198125Y-58736263D01*
X47198116Y-58736206D01*
X47197353Y-58731718D01*
X47197352Y-58731713D01*
X47161408Y-58647617D01*
X47125444Y-58598117D01*
X47101203Y-58570372D01*
X47022693Y-58523464D01*
X47022691Y-58523463D01*
X47022689Y-58523462D01*
X46964499Y-58504556D01*
X46964500Y-58504556D01*
X46901003Y-58494500D01*
X46901000Y-58494500D01*
X46749964Y-58494500D01*
X46691773Y-58475593D01*
X46655809Y-58426093D01*
X46655809Y-58364907D01*
X46691773Y-58315407D01*
X46705019Y-58307291D01*
X46707305Y-58306125D01*
X46713342Y-58303050D01*
X46803050Y-58213342D01*
X46860646Y-58100304D01*
X46875500Y-58006519D01*
X46875499Y-57543482D01*
X46860646Y-57449696D01*
X46803050Y-57336658D01*
X46713342Y-57246950D01*
X46600304Y-57189354D01*
X46600306Y-57189354D01*
X46584010Y-57186773D01*
X46529494Y-57158993D01*
X46501718Y-57104476D01*
X46500500Y-57088992D01*
X46500500Y-56300437D01*
X46500499Y-56300435D01*
X46484188Y-56239564D01*
X46480021Y-56224011D01*
X46440460Y-56155489D01*
X46420491Y-56135520D01*
X46384511Y-56099539D01*
X46384511Y-56099540D01*
X44889496Y-54604525D01*
X44861719Y-54550008D01*
X44860500Y-54534521D01*
X44860500Y-53410437D01*
X44860499Y-53410435D01*
X44840021Y-53334011D01*
X44840019Y-53334007D01*
X44800460Y-53265489D01*
X44744511Y-53209539D01*
X44744511Y-53209540D01*
X42885263Y-51350292D01*
X42857486Y-51295775D01*
X42863802Y-51242405D01*
X42920130Y-51106420D01*
X42960500Y-50903465D01*
X42960500Y-50696535D01*
X42920130Y-50493580D01*
X42840941Y-50302402D01*
X42725977Y-50130345D01*
X42579655Y-49984023D01*
X42499182Y-49930253D01*
X42407597Y-49869058D01*
X42216418Y-49789869D01*
X42013467Y-49749500D01*
X42013465Y-49749500D01*
X41806535Y-49749500D01*
X41806532Y-49749500D01*
X41603581Y-49789869D01*
X41412402Y-49869058D01*
X41240348Y-49984020D01*
X41094020Y-50130348D01*
X40979058Y-50302402D01*
X40899869Y-50493581D01*
X40859500Y-50696532D01*
X40859500Y-50903467D01*
X40899869Y-51106418D01*
X40979058Y-51297597D01*
X41094020Y-51469651D01*
X41094023Y-51469655D01*
X41240345Y-51615977D01*
X41412402Y-51730941D01*
X41603580Y-51810130D01*
X41806535Y-51850500D01*
X41806536Y-51850500D01*
X42013464Y-51850500D01*
X42013465Y-51850500D01*
X42216420Y-51810130D01*
X42352405Y-51753802D01*
X42413399Y-51749002D01*
X42460292Y-51775263D01*
X44230504Y-53545475D01*
X44258281Y-53599992D01*
X44259500Y-53615479D01*
X44259500Y-56034521D01*
X44240593Y-56092712D01*
X44230504Y-56104525D01*
X43864525Y-56470504D01*
X43810008Y-56498281D01*
X43794521Y-56499500D01*
X42970313Y-56499500D01*
X42953660Y-56494089D01*
X42936164Y-56493424D01*
X42925285Y-56484869D01*
X42912122Y-56480593D01*
X42888067Y-56455605D01*
X42887732Y-56455105D01*
X42871050Y-56396238D01*
X42887664Y-56344997D01*
X42889702Y-56341947D01*
X42898867Y-56328231D01*
X42910500Y-56269748D01*
X42910500Y-55730252D01*
X42898867Y-55671769D01*
X42854552Y-55605448D01*
X42846854Y-55600304D01*
X42788233Y-55561134D01*
X42788231Y-55561133D01*
X42788228Y-55561132D01*
X42788227Y-55561132D01*
X42729758Y-55549501D01*
X42729748Y-55549500D01*
X40820252Y-55549500D01*
X40820251Y-55549500D01*
X40820241Y-55549501D01*
X40761772Y-55561132D01*
X40761767Y-55561134D01*
X40747997Y-55570335D01*
X40689108Y-55586942D01*
X40631705Y-55565763D01*
X40622993Y-55558022D01*
X39699496Y-54634525D01*
X39671719Y-54580008D01*
X39670500Y-54564521D01*
X39670500Y-51878731D01*
X39689407Y-51820540D01*
X39731614Y-51787267D01*
X39867598Y-51730941D01*
X40039655Y-51615977D01*
X40185977Y-51469655D01*
X40300941Y-51297598D01*
X40380130Y-51106420D01*
X40420500Y-50903465D01*
X40420500Y-50696535D01*
X40380130Y-50493580D01*
X40300941Y-50302402D01*
X40185977Y-50130345D01*
X40039655Y-49984023D01*
X39959182Y-49930253D01*
X39867597Y-49869058D01*
X39676418Y-49789869D01*
X39473467Y-49749500D01*
X39473465Y-49749500D01*
X39266535Y-49749500D01*
X39266532Y-49749500D01*
X39063581Y-49789869D01*
X38872402Y-49869058D01*
X38700348Y-49984020D01*
X38554020Y-50130348D01*
X38439058Y-50302402D01*
X38359869Y-50493581D01*
X38319500Y-50696532D01*
X38319500Y-50903467D01*
X38359869Y-51106418D01*
X38439058Y-51297597D01*
X38554020Y-51469651D01*
X38554023Y-51469655D01*
X38700345Y-51615977D01*
X38872402Y-51730941D01*
X39008385Y-51787267D01*
X39054911Y-51827003D01*
X39069500Y-51878731D01*
X39069500Y-54769564D01*
X39089978Y-54845987D01*
X39117399Y-54893482D01*
X39117398Y-54893482D01*
X39125093Y-54906809D01*
X39129540Y-54914511D01*
X40399540Y-56184511D01*
X40399539Y-56184511D01*
X40455489Y-56240460D01*
X40524005Y-56280018D01*
X40524006Y-56280018D01*
X40524011Y-56280021D01*
X40600438Y-56300500D01*
X40600441Y-56300500D01*
X40603628Y-56301354D01*
X40607574Y-56303917D01*
X40612275Y-56304102D01*
X40632905Y-56320367D01*
X40654942Y-56334679D01*
X40660322Y-56341984D01*
X40662339Y-56345003D01*
X40678944Y-56403892D01*
X40662337Y-56455001D01*
X40651134Y-56471767D01*
X40651132Y-56471772D01*
X40639501Y-56530241D01*
X40639500Y-56530253D01*
X40639500Y-57069746D01*
X40639501Y-57069758D01*
X40651132Y-57128227D01*
X40651133Y-57128231D01*
X40651134Y-57128232D01*
X40662337Y-57144999D01*
X40669638Y-57170887D01*
X40678945Y-57196123D01*
X40677849Y-57200004D01*
X40678945Y-57203887D01*
X40662333Y-57255003D01*
X40662331Y-57255010D01*
X40660314Y-57258028D01*
X40612260Y-57295902D01*
X40603629Y-57298644D01*
X40524009Y-57319979D01*
X40524007Y-57319980D01*
X40455491Y-57359538D01*
X36645490Y-61169539D01*
X36645489Y-61169538D01*
X36589540Y-61225488D01*
X36549981Y-61294006D01*
X36549979Y-61294010D01*
X36529501Y-61370434D01*
X36529501Y-67501267D01*
X36510594Y-67559458D01*
X36468388Y-67592731D01*
X36332402Y-67649059D01*
X36160349Y-67764020D01*
X36014021Y-67910348D01*
X35899059Y-68082402D01*
X35819870Y-68273581D01*
X35779501Y-68476532D01*
X32800499Y-68476532D01*
X32760130Y-68273580D01*
X32680941Y-68082402D01*
X32565977Y-67910345D01*
X32419655Y-67764023D01*
X32339182Y-67710253D01*
X32247597Y-67649058D01*
X32056418Y-67569869D01*
X31853467Y-67529500D01*
X31853465Y-67529500D01*
X31646535Y-67529500D01*
X31646532Y-67529500D01*
X31443581Y-67569869D01*
X31252402Y-67649058D01*
X31080348Y-67764020D01*
X30934020Y-67910348D01*
X30819058Y-68082402D01*
X30739869Y-68273581D01*
X30699500Y-68476532D01*
X30260499Y-68476532D01*
X30220130Y-68273580D01*
X30163802Y-68137595D01*
X30159002Y-68076599D01*
X30185261Y-68029708D01*
X31740460Y-66474511D01*
X31780021Y-66405989D01*
X31800500Y-66329562D01*
X31800500Y-61248321D01*
X31819407Y-61190130D01*
X31829490Y-61178323D01*
X31900500Y-61107314D01*
X31903730Y-61101719D01*
X31966390Y-60993190D01*
X31966390Y-60993188D01*
X31966392Y-60993186D01*
X32000500Y-60865892D01*
X32000500Y-60734108D01*
X31966392Y-60606814D01*
X31966390Y-60606811D01*
X31966390Y-60606809D01*
X31900503Y-60492690D01*
X31900501Y-60492688D01*
X31900500Y-60492686D01*
X31807314Y-60399500D01*
X31807311Y-60399498D01*
X31807309Y-60399496D01*
X31693189Y-60333609D01*
X31693191Y-60333609D01*
X31643799Y-60320375D01*
X31565892Y-60299500D01*
X31434108Y-60299500D01*
X31356200Y-60320375D01*
X31306809Y-60333609D01*
X31192690Y-60399496D01*
X31192689Y-60399497D01*
X31192686Y-60399499D01*
X31192686Y-60399500D01*
X31121680Y-60470505D01*
X31067166Y-60498281D01*
X31051679Y-60499500D01*
X30640313Y-60499500D01*
X30582122Y-60480593D01*
X30557998Y-60455502D01*
X30524554Y-60405451D01*
X30524552Y-60405448D01*
X30524548Y-60405445D01*
X30458233Y-60361134D01*
X30458231Y-60361133D01*
X30458228Y-60361132D01*
X30458227Y-60361132D01*
X30399758Y-60349501D01*
X30399748Y-60349500D01*
X28490252Y-60349500D01*
X28490251Y-60349500D01*
X28490241Y-60349501D01*
X28431772Y-60361132D01*
X28431766Y-60361134D01*
X28365451Y-60405445D01*
X28365445Y-60405451D01*
X28332002Y-60455502D01*
X28283951Y-60493381D01*
X28249687Y-60499500D01*
X27015151Y-60499500D01*
X26956960Y-60480593D01*
X26920996Y-60431093D01*
X26920996Y-60369907D01*
X26956960Y-60320407D01*
X26970206Y-60312291D01*
X26975262Y-60309714D01*
X26988342Y-60303050D01*
X27078050Y-60213342D01*
X27135646Y-60100304D01*
X27150500Y-60006519D01*
X27150499Y-59599499D01*
X27169406Y-59541309D01*
X27218906Y-59505345D01*
X27249499Y-59500500D01*
X28249687Y-59500500D01*
X28307878Y-59519407D01*
X28332002Y-59544498D01*
X28365448Y-59594552D01*
X28431769Y-59638867D01*
X28476231Y-59647711D01*
X28490241Y-59650498D01*
X28490246Y-59650498D01*
X28490252Y-59650500D01*
X28490253Y-59650500D01*
X30399747Y-59650500D01*
X30399748Y-59650500D01*
X30458231Y-59638867D01*
X30524552Y-59594552D01*
X30568867Y-59528231D01*
X30573658Y-59504140D01*
X30603555Y-59450758D01*
X30611657Y-59444795D01*
X30611362Y-59444410D01*
X30616500Y-59440465D01*
X30616511Y-59440460D01*
X30672460Y-59384511D01*
X37070460Y-52986511D01*
X37110021Y-52917989D01*
X37130500Y-52841562D01*
X37130500Y-51878731D01*
X37149407Y-51820540D01*
X37191614Y-51787267D01*
X37327598Y-51730941D01*
X37499655Y-51615977D01*
X37645977Y-51469655D01*
X37760941Y-51297598D01*
X37840130Y-51106420D01*
X37880500Y-50903465D01*
X37880500Y-50696535D01*
X37840130Y-50493580D01*
X37760941Y-50302402D01*
X37645977Y-50130345D01*
X37499655Y-49984023D01*
X37419182Y-49930253D01*
X37327597Y-49869058D01*
X37136418Y-49789869D01*
X36933467Y-49749500D01*
X36933465Y-49749500D01*
X36726535Y-49749500D01*
X36726532Y-49749500D01*
X36523581Y-49789869D01*
X36332402Y-49869058D01*
X36160348Y-49984020D01*
X36014020Y-50130348D01*
X35899058Y-50302402D01*
X35819869Y-50493581D01*
X35779500Y-50696532D01*
X35779500Y-50903467D01*
X35819869Y-51106418D01*
X35899058Y-51297597D01*
X36014020Y-51469651D01*
X36014023Y-51469655D01*
X36160345Y-51615977D01*
X36332402Y-51730941D01*
X36468385Y-51787267D01*
X36514911Y-51827003D01*
X36529500Y-51878731D01*
X36529500Y-52636520D01*
X36510593Y-52694711D01*
X36500504Y-52706524D01*
X30485359Y-58721668D01*
X30430842Y-58749445D01*
X30404693Y-58748939D01*
X30404591Y-58749977D01*
X30399749Y-58749500D01*
X30399748Y-58749500D01*
X28490252Y-58749500D01*
X28490251Y-58749500D01*
X28490241Y-58749501D01*
X28431772Y-58761132D01*
X28431766Y-58761134D01*
X28365451Y-58805445D01*
X28365445Y-58805451D01*
X28332002Y-58855502D01*
X28283951Y-58893381D01*
X28249687Y-58899500D01*
X27130899Y-58899500D01*
X27072708Y-58880593D01*
X27036744Y-58831093D01*
X27036744Y-58769907D01*
X27060893Y-58730498D01*
X27078050Y-58713342D01*
X27135646Y-58600304D01*
X27150500Y-58506519D01*
X27150499Y-58065477D01*
X27152967Y-58057880D01*
X27151718Y-58049990D01*
X27162241Y-58029336D01*
X27169406Y-58007287D01*
X27179496Y-57995474D01*
X27245475Y-57929496D01*
X27299992Y-57901719D01*
X27315478Y-57900500D01*
X28249687Y-57900500D01*
X28307878Y-57919407D01*
X28332002Y-57944498D01*
X28355422Y-57979548D01*
X28365448Y-57994552D01*
X28431769Y-58038867D01*
X28476231Y-58047711D01*
X28490241Y-58050498D01*
X28490246Y-58050498D01*
X28490252Y-58050500D01*
X28490253Y-58050500D01*
X30399747Y-58050500D01*
X30399748Y-58050500D01*
X30458231Y-58038867D01*
X30524552Y-57994552D01*
X30544780Y-57964278D01*
X30557998Y-57944498D01*
X30606049Y-57906619D01*
X30640313Y-57900500D01*
X30839563Y-57900500D01*
X30839563Y-57900499D01*
X30915989Y-57880021D01*
X30984511Y-57840460D01*
X31040460Y-57784511D01*
X34530459Y-54294512D01*
X34570020Y-54225990D01*
X34590499Y-54149563D01*
X34590499Y-51878731D01*
X34609406Y-51820540D01*
X34651613Y-51787267D01*
X34787597Y-51730941D01*
X34959654Y-51615977D01*
X35105976Y-51469655D01*
X35220940Y-51297598D01*
X35300129Y-51106420D01*
X35340499Y-50903465D01*
X35340499Y-50696535D01*
X35300129Y-50493580D01*
X35220940Y-50302402D01*
X35105976Y-50130345D01*
X34959654Y-49984023D01*
X34879181Y-49930253D01*
X34787596Y-49869058D01*
X34596417Y-49789869D01*
X34393466Y-49749500D01*
X34393464Y-49749500D01*
X34186534Y-49749500D01*
X34186531Y-49749500D01*
X33983580Y-49789869D01*
X33792401Y-49869058D01*
X33620347Y-49984020D01*
X33474019Y-50130348D01*
X33359057Y-50302402D01*
X33279868Y-50493581D01*
X33239499Y-50696532D01*
X33239499Y-50903467D01*
X33279868Y-51106418D01*
X33359057Y-51297597D01*
X33474019Y-51469651D01*
X33474022Y-51469655D01*
X33620344Y-51615977D01*
X33792401Y-51730941D01*
X33928384Y-51787267D01*
X33974910Y-51827003D01*
X33989499Y-51878731D01*
X33989499Y-53944522D01*
X33970592Y-54002713D01*
X33960503Y-54014526D01*
X32218068Y-55756960D01*
X32163551Y-55784737D01*
X32103119Y-55775166D01*
X32059854Y-55731901D01*
X32049911Y-55674031D01*
X32050498Y-55669565D01*
X32050500Y-55669562D01*
X32050500Y-51878731D01*
X32069407Y-51820540D01*
X32111614Y-51787267D01*
X32247598Y-51730941D01*
X32419655Y-51615977D01*
X32565977Y-51469655D01*
X32680941Y-51297598D01*
X32760130Y-51106420D01*
X32800500Y-50903465D01*
X32800500Y-50696535D01*
X32760130Y-50493580D01*
X32680941Y-50302402D01*
X32565977Y-50130345D01*
X32419655Y-49984023D01*
X32339182Y-49930253D01*
X32247597Y-49869058D01*
X32056418Y-49789869D01*
X31853467Y-49749500D01*
X31853465Y-49749500D01*
X31646535Y-49749500D01*
X31646532Y-49749500D01*
X31443581Y-49789869D01*
X31252402Y-49869058D01*
X31080348Y-49984020D01*
X30934020Y-50130348D01*
X30819058Y-50302402D01*
X30739869Y-50493581D01*
X30699500Y-50696532D01*
X30699500Y-50903467D01*
X30739869Y-51106418D01*
X30819058Y-51297597D01*
X30934020Y-51469651D01*
X30934023Y-51469655D01*
X31080345Y-51615977D01*
X31252402Y-51730941D01*
X31388385Y-51787267D01*
X31434911Y-51827003D01*
X31449500Y-51878731D01*
X31449500Y-55464520D01*
X31430593Y-55522711D01*
X31420504Y-55534524D01*
X30749504Y-56205524D01*
X30694987Y-56233301D01*
X30634555Y-56223730D01*
X30591290Y-56180465D01*
X30580500Y-56135520D01*
X30580500Y-55730253D01*
X30580498Y-55730241D01*
X30577136Y-55713340D01*
X30568867Y-55671769D01*
X30524552Y-55605448D01*
X30516854Y-55600304D01*
X30458233Y-55561134D01*
X30458231Y-55561133D01*
X30458228Y-55561132D01*
X30458227Y-55561132D01*
X30399758Y-55549501D01*
X30399748Y-55549500D01*
X28490252Y-55549500D01*
X28490251Y-55549500D01*
X28490241Y-55549501D01*
X28431772Y-55561132D01*
X28431766Y-55561134D01*
X28365451Y-55605445D01*
X28365445Y-55605451D01*
X28321134Y-55671766D01*
X28321132Y-55671772D01*
X28309501Y-55730241D01*
X28309500Y-55730253D01*
X28309500Y-56269750D01*
X28311775Y-56281186D01*
X28304583Y-56341947D01*
X28263051Y-56386877D01*
X28214677Y-56399500D01*
X27236008Y-56399500D01*
X27177817Y-56380593D01*
X27141853Y-56331093D01*
X27138227Y-56315987D01*
X27135647Y-56299699D01*
X27135646Y-56299697D01*
X27135646Y-56299696D01*
X27078050Y-56186658D01*
X26988342Y-56096950D01*
X26988339Y-56096948D01*
X26873058Y-56038209D01*
X26829793Y-55994945D01*
X26820222Y-55934513D01*
X26848000Y-55879996D01*
X26873058Y-55861791D01*
X26934376Y-55830547D01*
X26988342Y-55803050D01*
X27078050Y-55713342D01*
X27135646Y-55600304D01*
X27150500Y-55506519D01*
X27150499Y-54893482D01*
X27148722Y-54882263D01*
X27135647Y-54799700D01*
X27135646Y-54799698D01*
X27135646Y-54799696D01*
X27078050Y-54686658D01*
X26988342Y-54596950D01*
X26988339Y-54596948D01*
X26929554Y-54566995D01*
X26913164Y-54550605D01*
X26894407Y-54536977D01*
X26891938Y-54529378D01*
X26886290Y-54523730D01*
X26875500Y-54478786D01*
X26875500Y-54445799D01*
X26894407Y-54387608D01*
X26929554Y-54357590D01*
X26944514Y-54349967D01*
X27043251Y-54299658D01*
X27137158Y-54205751D01*
X27197451Y-54087420D01*
X27213000Y-53989246D01*
X27213000Y-53410754D01*
X27212949Y-53410435D01*
X27200845Y-53334011D01*
X27197451Y-53312580D01*
X27137158Y-53194249D01*
X27043251Y-53100342D01*
X27039131Y-53098243D01*
X26924923Y-53040050D01*
X26924920Y-53040049D01*
X26900376Y-53036161D01*
X26826749Y-53024500D01*
X26826746Y-53024500D01*
X26323254Y-53024500D01*
X26323251Y-53024500D01*
X26225080Y-53040049D01*
X26225076Y-53040050D01*
X26106750Y-53100341D01*
X26012841Y-53194250D01*
X25952550Y-53312576D01*
X25952549Y-53312580D01*
X25937000Y-53410751D01*
X25937000Y-53989248D01*
X25952549Y-54087419D01*
X25952550Y-54087423D01*
X26010743Y-54201631D01*
X26012842Y-54205751D01*
X26106749Y-54299658D01*
X26194004Y-54344117D01*
X26220446Y-54357590D01*
X26236836Y-54373980D01*
X26255593Y-54387608D01*
X26258061Y-54395205D01*
X26263710Y-54400854D01*
X26274500Y-54445799D01*
X26274500Y-54453310D01*
X26255593Y-54511501D01*
X26220446Y-54541519D01*
X26111659Y-54596949D01*
X26021949Y-54686659D01*
X25964354Y-54799695D01*
X25949500Y-54893477D01*
X25949500Y-55506520D01*
X25949501Y-55506523D01*
X25964352Y-55600299D01*
X25964354Y-55600304D01*
X26021950Y-55713342D01*
X26111658Y-55803050D01*
X26164570Y-55830010D01*
X26226942Y-55861791D01*
X26270206Y-55905056D01*
X26279777Y-55965488D01*
X26251999Y-56020004D01*
X26226942Y-56038209D01*
X26111659Y-56096949D01*
X26021949Y-56186659D01*
X25964354Y-56299695D01*
X25949500Y-56393477D01*
X25949500Y-57006520D01*
X25949501Y-57006523D01*
X25964352Y-57100299D01*
X25964354Y-57100303D01*
X25964354Y-57100304D01*
X26021950Y-57213342D01*
X26111658Y-57303050D01*
X26144883Y-57319979D01*
X26226942Y-57361791D01*
X26270206Y-57405056D01*
X26279777Y-57465488D01*
X26251999Y-57520004D01*
X26226942Y-57538209D01*
X26111659Y-57596949D01*
X26021949Y-57686659D01*
X25964354Y-57799695D01*
X25949500Y-57893477D01*
X25949500Y-58506520D01*
X25949501Y-58506523D01*
X25964352Y-58600299D01*
X25964354Y-58600304D01*
X26021950Y-58713342D01*
X26111658Y-58803050D01*
X26164570Y-58830010D01*
X26226942Y-58861791D01*
X26270206Y-58905056D01*
X26279777Y-58965488D01*
X26251999Y-59020004D01*
X26226942Y-59038209D01*
X26111659Y-59096949D01*
X26021949Y-59186659D01*
X25964354Y-59299695D01*
X25949500Y-59393478D01*
X25949500Y-59985521D01*
X25930593Y-60043712D01*
X25881093Y-60079676D01*
X25819907Y-60079676D01*
X25780496Y-60055525D01*
X25529495Y-59804524D01*
X25501718Y-59750007D01*
X25500499Y-59734520D01*
X25500499Y-59393478D01*
X25500498Y-59393476D01*
X25485647Y-59299700D01*
X25485646Y-59299698D01*
X25485646Y-59299696D01*
X25428050Y-59186658D01*
X25338342Y-59096950D01*
X25225304Y-59039354D01*
X25225305Y-59039354D01*
X25131522Y-59024500D01*
X24668479Y-59024500D01*
X24668476Y-59024501D01*
X24574700Y-59039352D01*
X24574695Y-59039354D01*
X24461659Y-59096949D01*
X24371949Y-59186659D01*
X24314354Y-59299695D01*
X24299500Y-59393477D01*
X23260500Y-59393477D01*
X23260500Y-55034108D01*
X23499500Y-55034108D01*
X23499500Y-55165892D01*
X23529579Y-55278151D01*
X23533609Y-55293190D01*
X23599496Y-55407309D01*
X23599498Y-55407311D01*
X23599500Y-55407314D01*
X23692686Y-55500500D01*
X23692688Y-55500501D01*
X23692690Y-55500503D01*
X23806810Y-55566390D01*
X23806808Y-55566390D01*
X23806812Y-55566391D01*
X23806814Y-55566392D01*
X23934108Y-55600500D01*
X23934110Y-55600500D01*
X24065890Y-55600500D01*
X24065892Y-55600500D01*
X24193186Y-55566392D01*
X24193195Y-55566386D01*
X24194419Y-55565881D01*
X24195370Y-55565806D01*
X24199454Y-55564712D01*
X24199656Y-55565468D01*
X24255415Y-55561079D01*
X24307585Y-55593047D01*
X24320516Y-55612398D01*
X24371950Y-55713342D01*
X24461658Y-55803050D01*
X24574696Y-55860646D01*
X24668481Y-55875500D01*
X25131518Y-55875499D01*
X25131520Y-55875499D01*
X25131521Y-55875498D01*
X25178411Y-55868072D01*
X25225299Y-55860647D01*
X25225299Y-55860646D01*
X25225304Y-55860646D01*
X25338342Y-55803050D01*
X25428050Y-55713342D01*
X25485646Y-55600304D01*
X25500500Y-55506519D01*
X25500499Y-54893482D01*
X25498722Y-54882263D01*
X25485647Y-54799700D01*
X25485646Y-54799698D01*
X25485646Y-54799696D01*
X25428050Y-54686658D01*
X25338342Y-54596950D01*
X25225304Y-54539354D01*
X25225305Y-54539354D01*
X25131522Y-54524500D01*
X24668479Y-54524500D01*
X24668476Y-54524501D01*
X24574700Y-54539352D01*
X24574695Y-54539354D01*
X24461659Y-54596949D01*
X24393864Y-54664743D01*
X24339347Y-54692519D01*
X24278915Y-54682947D01*
X24274361Y-54680474D01*
X24193189Y-54633609D01*
X24193191Y-54633609D01*
X24143799Y-54620375D01*
X24065892Y-54599500D01*
X23934108Y-54599500D01*
X23856200Y-54620375D01*
X23806809Y-54633609D01*
X23692690Y-54699496D01*
X23599496Y-54792690D01*
X23533609Y-54906809D01*
X23514539Y-54977978D01*
X23499500Y-55034108D01*
X23260500Y-55034108D01*
X23260500Y-50263539D01*
X23260752Y-50256477D01*
X23270885Y-50114796D01*
X23276276Y-50039420D01*
X23278283Y-50025461D01*
X23298994Y-49930253D01*
X28159500Y-49930253D01*
X28159500Y-51669746D01*
X28159501Y-51669758D01*
X28171132Y-51728227D01*
X28171134Y-51728233D01*
X28172944Y-51730942D01*
X28215448Y-51794552D01*
X28281769Y-51838867D01*
X28326231Y-51847711D01*
X28340241Y-51850498D01*
X28340246Y-51850498D01*
X28340252Y-51850500D01*
X28340253Y-51850500D01*
X30079747Y-51850500D01*
X30079748Y-51850500D01*
X30138231Y-51838867D01*
X30204552Y-51794552D01*
X30248867Y-51728231D01*
X30260500Y-51669748D01*
X30260500Y-49930252D01*
X30248867Y-49871769D01*
X30204552Y-49805448D01*
X30200486Y-49802731D01*
X30138233Y-49761134D01*
X30138231Y-49761133D01*
X30138228Y-49761132D01*
X30138227Y-49761132D01*
X30079758Y-49749501D01*
X30079748Y-49749500D01*
X28340252Y-49749500D01*
X28340251Y-49749500D01*
X28340241Y-49749501D01*
X28281772Y-49761132D01*
X28281766Y-49761134D01*
X28215451Y-49805445D01*
X28215445Y-49805451D01*
X28171134Y-49871766D01*
X28171132Y-49871772D01*
X28159501Y-49930241D01*
X28159500Y-49930253D01*
X23298994Y-49930253D01*
X23323788Y-49816274D01*
X23327762Y-49802741D01*
X23402576Y-49602160D01*
X23408428Y-49589345D01*
X23511027Y-49401448D01*
X23518654Y-49389582D01*
X23646936Y-49218218D01*
X23656178Y-49207550D01*
X23807550Y-49056178D01*
X23818218Y-49046936D01*
X23989582Y-48918654D01*
X24001448Y-48911027D01*
X24189345Y-48808428D01*
X24202160Y-48802576D01*
X24402741Y-48727762D01*
X24416274Y-48723788D01*
X24625461Y-48678283D01*
X24639420Y-48676276D01*
X24832193Y-48662488D01*
X24856478Y-48660752D01*
X24863540Y-48660500D01*
X24917583Y-48660500D01*
X46202417Y-48660500D01*
X46256460Y-48660500D01*
X46263522Y-48660752D01*
G37*
%TD.AperFunction*%
%TD*%
M02*
