%TF.GenerationSoftware,KiCad,Pcbnew,9.0.2*%
%TF.CreationDate,2025-06-17T22:54:35-04:00*%
%TF.ProjectId,SCH16TBreakout,53434831-3654-4427-9265-616b6f75742e,rev?*%
%TF.SameCoordinates,Original*%
%TF.FileFunction,Legend,Bot*%
%TF.FilePolarity,Positive*%
%FSLAX46Y46*%
G04 Gerber Fmt 4.6, Leading zero omitted, Abs format (unit mm)*
G04 Created by KiCad (PCBNEW 9.0.2) date 2025-06-17 22:54:35*
%MOMM*%
%LPD*%
G01*
G04 APERTURE LIST*
%ADD10C,0.150000*%
%ADD11C,0.120000*%
%ADD12C,0.000000*%
G04 APERTURE END LIST*
D10*
X42863220Y-66969819D02*
X42863220Y-65969819D01*
X42387030Y-66969819D02*
X42387030Y-65969819D01*
X42387030Y-65969819D02*
X41815602Y-66969819D01*
X41815602Y-66969819D02*
X41815602Y-65969819D01*
X41482268Y-65969819D02*
X40910840Y-65969819D01*
X41196554Y-66969819D02*
X41196554Y-65969819D01*
X30458458Y-65869819D02*
X29839411Y-65869819D01*
X29839411Y-65869819D02*
X30172744Y-66250771D01*
X30172744Y-66250771D02*
X30029887Y-66250771D01*
X30029887Y-66250771D02*
X29934649Y-66298390D01*
X29934649Y-66298390D02*
X29887030Y-66346009D01*
X29887030Y-66346009D02*
X29839411Y-66441247D01*
X29839411Y-66441247D02*
X29839411Y-66679342D01*
X29839411Y-66679342D02*
X29887030Y-66774580D01*
X29887030Y-66774580D02*
X29934649Y-66822200D01*
X29934649Y-66822200D02*
X30029887Y-66869819D01*
X30029887Y-66869819D02*
X30315601Y-66869819D01*
X30315601Y-66869819D02*
X30410839Y-66822200D01*
X30410839Y-66822200D02*
X30458458Y-66774580D01*
X29553696Y-65869819D02*
X29220363Y-66869819D01*
X29220363Y-66869819D02*
X28887030Y-65869819D01*
X28648934Y-65869819D02*
X28029887Y-65869819D01*
X28029887Y-65869819D02*
X28363220Y-66250771D01*
X28363220Y-66250771D02*
X28220363Y-66250771D01*
X28220363Y-66250771D02*
X28125125Y-66298390D01*
X28125125Y-66298390D02*
X28077506Y-66346009D01*
X28077506Y-66346009D02*
X28029887Y-66441247D01*
X28029887Y-66441247D02*
X28029887Y-66679342D01*
X28029887Y-66679342D02*
X28077506Y-66774580D01*
X28077506Y-66774580D02*
X28125125Y-66822200D01*
X28125125Y-66822200D02*
X28220363Y-66869819D01*
X28220363Y-66869819D02*
X28506077Y-66869819D01*
X28506077Y-66869819D02*
X28601315Y-66822200D01*
X28601315Y-66822200D02*
X28648934Y-66774580D01*
X28158458Y-55169819D02*
X27539411Y-55169819D01*
X27539411Y-55169819D02*
X27872744Y-55550771D01*
X27872744Y-55550771D02*
X27729887Y-55550771D01*
X27729887Y-55550771D02*
X27634649Y-55598390D01*
X27634649Y-55598390D02*
X27587030Y-55646009D01*
X27587030Y-55646009D02*
X27539411Y-55741247D01*
X27539411Y-55741247D02*
X27539411Y-55979342D01*
X27539411Y-55979342D02*
X27587030Y-56074580D01*
X27587030Y-56074580D02*
X27634649Y-56122200D01*
X27634649Y-56122200D02*
X27729887Y-56169819D01*
X27729887Y-56169819D02*
X28015601Y-56169819D01*
X28015601Y-56169819D02*
X28110839Y-56122200D01*
X28110839Y-56122200D02*
X28158458Y-56074580D01*
X27253696Y-55169819D02*
X26920363Y-56169819D01*
X26920363Y-56169819D02*
X26587030Y-55169819D01*
X26348934Y-55169819D02*
X25729887Y-55169819D01*
X25729887Y-55169819D02*
X26063220Y-55550771D01*
X26063220Y-55550771D02*
X25920363Y-55550771D01*
X25920363Y-55550771D02*
X25825125Y-55598390D01*
X25825125Y-55598390D02*
X25777506Y-55646009D01*
X25777506Y-55646009D02*
X25729887Y-55741247D01*
X25729887Y-55741247D02*
X25729887Y-55979342D01*
X25729887Y-55979342D02*
X25777506Y-56074580D01*
X25777506Y-56074580D02*
X25825125Y-56122200D01*
X25825125Y-56122200D02*
X25920363Y-56169819D01*
X25920363Y-56169819D02*
X26206077Y-56169819D01*
X26206077Y-56169819D02*
X26301315Y-56122200D01*
X26301315Y-56122200D02*
X26348934Y-56074580D01*
X39963220Y-53469819D02*
X39963220Y-52469819D01*
X39963220Y-52469819D02*
X39725125Y-52469819D01*
X39725125Y-52469819D02*
X39582268Y-52517438D01*
X39582268Y-52517438D02*
X39487030Y-52612676D01*
X39487030Y-52612676D02*
X39439411Y-52707914D01*
X39439411Y-52707914D02*
X39391792Y-52898390D01*
X39391792Y-52898390D02*
X39391792Y-53041247D01*
X39391792Y-53041247D02*
X39439411Y-53231723D01*
X39439411Y-53231723D02*
X39487030Y-53326961D01*
X39487030Y-53326961D02*
X39582268Y-53422200D01*
X39582268Y-53422200D02*
X39725125Y-53469819D01*
X39725125Y-53469819D02*
X39963220Y-53469819D01*
X38963220Y-53469819D02*
X38963220Y-52469819D01*
X43358458Y-62969819D02*
X42739411Y-62969819D01*
X42739411Y-62969819D02*
X43072744Y-63350771D01*
X43072744Y-63350771D02*
X42929887Y-63350771D01*
X42929887Y-63350771D02*
X42834649Y-63398390D01*
X42834649Y-63398390D02*
X42787030Y-63446009D01*
X42787030Y-63446009D02*
X42739411Y-63541247D01*
X42739411Y-63541247D02*
X42739411Y-63779342D01*
X42739411Y-63779342D02*
X42787030Y-63874580D01*
X42787030Y-63874580D02*
X42834649Y-63922200D01*
X42834649Y-63922200D02*
X42929887Y-63969819D01*
X42929887Y-63969819D02*
X43215601Y-63969819D01*
X43215601Y-63969819D02*
X43310839Y-63922200D01*
X43310839Y-63922200D02*
X43358458Y-63874580D01*
X42453696Y-62969819D02*
X42120363Y-63969819D01*
X42120363Y-63969819D02*
X41787030Y-62969819D01*
X41548934Y-62969819D02*
X40929887Y-62969819D01*
X40929887Y-62969819D02*
X41263220Y-63350771D01*
X41263220Y-63350771D02*
X41120363Y-63350771D01*
X41120363Y-63350771D02*
X41025125Y-63398390D01*
X41025125Y-63398390D02*
X40977506Y-63446009D01*
X40977506Y-63446009D02*
X40929887Y-63541247D01*
X40929887Y-63541247D02*
X40929887Y-63779342D01*
X40929887Y-63779342D02*
X40977506Y-63874580D01*
X40977506Y-63874580D02*
X41025125Y-63922200D01*
X41025125Y-63922200D02*
X41120363Y-63969819D01*
X41120363Y-63969819D02*
X41406077Y-63969819D01*
X41406077Y-63969819D02*
X41501315Y-63922200D01*
X41501315Y-63922200D02*
X41548934Y-63874580D01*
X39548934Y-62969819D02*
X39358458Y-62969819D01*
X39358458Y-62969819D02*
X39263220Y-63017438D01*
X39263220Y-63017438D02*
X39167982Y-63112676D01*
X39167982Y-63112676D02*
X39120363Y-63303152D01*
X39120363Y-63303152D02*
X39120363Y-63636485D01*
X39120363Y-63636485D02*
X39167982Y-63826961D01*
X39167982Y-63826961D02*
X39263220Y-63922200D01*
X39263220Y-63922200D02*
X39358458Y-63969819D01*
X39358458Y-63969819D02*
X39548934Y-63969819D01*
X39548934Y-63969819D02*
X39644172Y-63922200D01*
X39644172Y-63922200D02*
X39739410Y-63826961D01*
X39739410Y-63826961D02*
X39787029Y-63636485D01*
X39787029Y-63636485D02*
X39787029Y-63303152D01*
X39787029Y-63303152D02*
X39739410Y-63112676D01*
X39739410Y-63112676D02*
X39644172Y-63017438D01*
X39644172Y-63017438D02*
X39548934Y-62969819D01*
X38691791Y-63969819D02*
X38691791Y-62969819D01*
X38691791Y-62969819D02*
X38120363Y-63969819D01*
X38120363Y-63969819D02*
X38120363Y-62969819D01*
X37167982Y-63969819D02*
X37644172Y-63969819D01*
X37644172Y-63969819D02*
X37644172Y-62969819D01*
X36644172Y-63493628D02*
X36644172Y-63969819D01*
X36977505Y-62969819D02*
X36644172Y-63493628D01*
X36644172Y-63493628D02*
X36310839Y-62969819D01*
X43310839Y-62022200D02*
X43167982Y-62069819D01*
X43167982Y-62069819D02*
X42929887Y-62069819D01*
X42929887Y-62069819D02*
X42834649Y-62022200D01*
X42834649Y-62022200D02*
X42787030Y-61974580D01*
X42787030Y-61974580D02*
X42739411Y-61879342D01*
X42739411Y-61879342D02*
X42739411Y-61784104D01*
X42739411Y-61784104D02*
X42787030Y-61688866D01*
X42787030Y-61688866D02*
X42834649Y-61641247D01*
X42834649Y-61641247D02*
X42929887Y-61593628D01*
X42929887Y-61593628D02*
X43120363Y-61546009D01*
X43120363Y-61546009D02*
X43215601Y-61498390D01*
X43215601Y-61498390D02*
X43263220Y-61450771D01*
X43263220Y-61450771D02*
X43310839Y-61355533D01*
X43310839Y-61355533D02*
X43310839Y-61260295D01*
X43310839Y-61260295D02*
X43263220Y-61165057D01*
X43263220Y-61165057D02*
X43215601Y-61117438D01*
X43215601Y-61117438D02*
X43120363Y-61069819D01*
X43120363Y-61069819D02*
X42882268Y-61069819D01*
X42882268Y-61069819D02*
X42739411Y-61117438D01*
X41739411Y-61974580D02*
X41787030Y-62022200D01*
X41787030Y-62022200D02*
X41929887Y-62069819D01*
X41929887Y-62069819D02*
X42025125Y-62069819D01*
X42025125Y-62069819D02*
X42167982Y-62022200D01*
X42167982Y-62022200D02*
X42263220Y-61926961D01*
X42263220Y-61926961D02*
X42310839Y-61831723D01*
X42310839Y-61831723D02*
X42358458Y-61641247D01*
X42358458Y-61641247D02*
X42358458Y-61498390D01*
X42358458Y-61498390D02*
X42310839Y-61307914D01*
X42310839Y-61307914D02*
X42263220Y-61212676D01*
X42263220Y-61212676D02*
X42167982Y-61117438D01*
X42167982Y-61117438D02*
X42025125Y-61069819D01*
X42025125Y-61069819D02*
X41929887Y-61069819D01*
X41929887Y-61069819D02*
X41787030Y-61117438D01*
X41787030Y-61117438D02*
X41739411Y-61165057D01*
X41310839Y-62069819D02*
X41310839Y-61069819D01*
X41310839Y-61546009D02*
X40739411Y-61546009D01*
X40739411Y-62069819D02*
X40739411Y-61069819D01*
X39739411Y-62069819D02*
X40310839Y-62069819D01*
X40025125Y-62069819D02*
X40025125Y-61069819D01*
X40025125Y-61069819D02*
X40120363Y-61212676D01*
X40120363Y-61212676D02*
X40215601Y-61307914D01*
X40215601Y-61307914D02*
X40310839Y-61355533D01*
X38882268Y-61069819D02*
X39072744Y-61069819D01*
X39072744Y-61069819D02*
X39167982Y-61117438D01*
X39167982Y-61117438D02*
X39215601Y-61165057D01*
X39215601Y-61165057D02*
X39310839Y-61307914D01*
X39310839Y-61307914D02*
X39358458Y-61498390D01*
X39358458Y-61498390D02*
X39358458Y-61879342D01*
X39358458Y-61879342D02*
X39310839Y-61974580D01*
X39310839Y-61974580D02*
X39263220Y-62022200D01*
X39263220Y-62022200D02*
X39167982Y-62069819D01*
X39167982Y-62069819D02*
X38977506Y-62069819D01*
X38977506Y-62069819D02*
X38882268Y-62022200D01*
X38882268Y-62022200D02*
X38834649Y-61974580D01*
X38834649Y-61974580D02*
X38787030Y-61879342D01*
X38787030Y-61879342D02*
X38787030Y-61641247D01*
X38787030Y-61641247D02*
X38834649Y-61546009D01*
X38834649Y-61546009D02*
X38882268Y-61498390D01*
X38882268Y-61498390D02*
X38977506Y-61450771D01*
X38977506Y-61450771D02*
X39167982Y-61450771D01*
X39167982Y-61450771D02*
X39263220Y-61498390D01*
X39263220Y-61498390D02*
X39310839Y-61546009D01*
X39310839Y-61546009D02*
X39358458Y-61641247D01*
X38501315Y-61069819D02*
X37929887Y-61069819D01*
X38215601Y-62069819D02*
X38215601Y-61069819D01*
X37596553Y-61688866D02*
X36834649Y-61688866D01*
X36358458Y-62069819D02*
X36358458Y-61069819D01*
X35787030Y-62069819D02*
X36215601Y-61498390D01*
X35787030Y-61069819D02*
X36358458Y-61641247D01*
X35167982Y-61069819D02*
X35072744Y-61069819D01*
X35072744Y-61069819D02*
X34977506Y-61117438D01*
X34977506Y-61117438D02*
X34929887Y-61165057D01*
X34929887Y-61165057D02*
X34882268Y-61260295D01*
X34882268Y-61260295D02*
X34834649Y-61450771D01*
X34834649Y-61450771D02*
X34834649Y-61688866D01*
X34834649Y-61688866D02*
X34882268Y-61879342D01*
X34882268Y-61879342D02*
X34929887Y-61974580D01*
X34929887Y-61974580D02*
X34977506Y-62022200D01*
X34977506Y-62022200D02*
X35072744Y-62069819D01*
X35072744Y-62069819D02*
X35167982Y-62069819D01*
X35167982Y-62069819D02*
X35263220Y-62022200D01*
X35263220Y-62022200D02*
X35310839Y-61974580D01*
X35310839Y-61974580D02*
X35358458Y-61879342D01*
X35358458Y-61879342D02*
X35406077Y-61688866D01*
X35406077Y-61688866D02*
X35406077Y-61450771D01*
X35406077Y-61450771D02*
X35358458Y-61260295D01*
X35358458Y-61260295D02*
X35310839Y-61165057D01*
X35310839Y-61165057D02*
X35263220Y-61117438D01*
X35263220Y-61117438D02*
X35167982Y-61069819D01*
X33882268Y-62069819D02*
X34453696Y-62069819D01*
X34167982Y-62069819D02*
X34167982Y-61069819D01*
X34167982Y-61069819D02*
X34263220Y-61212676D01*
X34263220Y-61212676D02*
X34358458Y-61307914D01*
X34358458Y-61307914D02*
X34453696Y-61355533D01*
X32691791Y-62069819D02*
X32691791Y-61069819D01*
X32215601Y-62069819D02*
X32215601Y-61069819D01*
X32215601Y-61069819D02*
X31882268Y-61784104D01*
X31882268Y-61784104D02*
X31548935Y-61069819D01*
X31548935Y-61069819D02*
X31548935Y-62069819D01*
X31072744Y-61069819D02*
X31072744Y-61879342D01*
X31072744Y-61879342D02*
X31025125Y-61974580D01*
X31025125Y-61974580D02*
X30977506Y-62022200D01*
X30977506Y-62022200D02*
X30882268Y-62069819D01*
X30882268Y-62069819D02*
X30691792Y-62069819D01*
X30691792Y-62069819D02*
X30596554Y-62022200D01*
X30596554Y-62022200D02*
X30548935Y-61974580D01*
X30548935Y-61974580D02*
X30501316Y-61879342D01*
X30501316Y-61879342D02*
X30501316Y-61069819D01*
X31706077Y-57269819D02*
X31134649Y-57269819D01*
X31420363Y-58269819D02*
X31420363Y-57269819D01*
X30848934Y-57984104D02*
X30372744Y-57984104D01*
X30944172Y-58269819D02*
X30610839Y-57269819D01*
X30610839Y-57269819D02*
X30277506Y-58269819D01*
X29896553Y-58269819D02*
X29706077Y-58269819D01*
X29706077Y-58269819D02*
X29610839Y-58222200D01*
X29610839Y-58222200D02*
X29563220Y-58174580D01*
X29563220Y-58174580D02*
X29467982Y-58031723D01*
X29467982Y-58031723D02*
X29420363Y-57841247D01*
X29420363Y-57841247D02*
X29420363Y-57460295D01*
X29420363Y-57460295D02*
X29467982Y-57365057D01*
X29467982Y-57365057D02*
X29515601Y-57317438D01*
X29515601Y-57317438D02*
X29610839Y-57269819D01*
X29610839Y-57269819D02*
X29801315Y-57269819D01*
X29801315Y-57269819D02*
X29896553Y-57317438D01*
X29896553Y-57317438D02*
X29944172Y-57365057D01*
X29944172Y-57365057D02*
X29991791Y-57460295D01*
X29991791Y-57460295D02*
X29991791Y-57698390D01*
X29991791Y-57698390D02*
X29944172Y-57793628D01*
X29944172Y-57793628D02*
X29896553Y-57841247D01*
X29896553Y-57841247D02*
X29801315Y-57888866D01*
X29801315Y-57888866D02*
X29610839Y-57888866D01*
X29610839Y-57888866D02*
X29515601Y-57841247D01*
X29515601Y-57841247D02*
X29467982Y-57793628D01*
X29467982Y-57793628D02*
X29420363Y-57698390D01*
X32306077Y-52469819D02*
X31734649Y-52469819D01*
X32020363Y-53469819D02*
X32020363Y-52469819D01*
X31353696Y-53469819D02*
X31163220Y-53469819D01*
X31163220Y-53469819D02*
X31067982Y-53422200D01*
X31067982Y-53422200D02*
X31020363Y-53374580D01*
X31020363Y-53374580D02*
X30925125Y-53231723D01*
X30925125Y-53231723D02*
X30877506Y-53041247D01*
X30877506Y-53041247D02*
X30877506Y-52660295D01*
X30877506Y-52660295D02*
X30925125Y-52565057D01*
X30925125Y-52565057D02*
X30972744Y-52517438D01*
X30972744Y-52517438D02*
X31067982Y-52469819D01*
X31067982Y-52469819D02*
X31258458Y-52469819D01*
X31258458Y-52469819D02*
X31353696Y-52517438D01*
X31353696Y-52517438D02*
X31401315Y-52565057D01*
X31401315Y-52565057D02*
X31448934Y-52660295D01*
X31448934Y-52660295D02*
X31448934Y-52898390D01*
X31448934Y-52898390D02*
X31401315Y-52993628D01*
X31401315Y-52993628D02*
X31353696Y-53041247D01*
X31353696Y-53041247D02*
X31258458Y-53088866D01*
X31258458Y-53088866D02*
X31067982Y-53088866D01*
X31067982Y-53088866D02*
X30972744Y-53041247D01*
X30972744Y-53041247D02*
X30925125Y-52993628D01*
X30925125Y-52993628D02*
X30877506Y-52898390D01*
X41991792Y-53374580D02*
X42039411Y-53422200D01*
X42039411Y-53422200D02*
X42182268Y-53469819D01*
X42182268Y-53469819D02*
X42277506Y-53469819D01*
X42277506Y-53469819D02*
X42420363Y-53422200D01*
X42420363Y-53422200D02*
X42515601Y-53326961D01*
X42515601Y-53326961D02*
X42563220Y-53231723D01*
X42563220Y-53231723D02*
X42610839Y-53041247D01*
X42610839Y-53041247D02*
X42610839Y-52898390D01*
X42610839Y-52898390D02*
X42563220Y-52707914D01*
X42563220Y-52707914D02*
X42515601Y-52612676D01*
X42515601Y-52612676D02*
X42420363Y-52517438D01*
X42420363Y-52517438D02*
X42277506Y-52469819D01*
X42277506Y-52469819D02*
X42182268Y-52469819D01*
X42182268Y-52469819D02*
X42039411Y-52517438D01*
X42039411Y-52517438D02*
X41991792Y-52565057D01*
X41610839Y-53422200D02*
X41467982Y-53469819D01*
X41467982Y-53469819D02*
X41229887Y-53469819D01*
X41229887Y-53469819D02*
X41134649Y-53422200D01*
X41134649Y-53422200D02*
X41087030Y-53374580D01*
X41087030Y-53374580D02*
X41039411Y-53279342D01*
X41039411Y-53279342D02*
X41039411Y-53184104D01*
X41039411Y-53184104D02*
X41087030Y-53088866D01*
X41087030Y-53088866D02*
X41134649Y-53041247D01*
X41134649Y-53041247D02*
X41229887Y-52993628D01*
X41229887Y-52993628D02*
X41420363Y-52946009D01*
X41420363Y-52946009D02*
X41515601Y-52898390D01*
X41515601Y-52898390D02*
X41563220Y-52850771D01*
X41563220Y-52850771D02*
X41610839Y-52755533D01*
X41610839Y-52755533D02*
X41610839Y-52660295D01*
X41610839Y-52660295D02*
X41563220Y-52565057D01*
X41563220Y-52565057D02*
X41515601Y-52517438D01*
X41515601Y-52517438D02*
X41420363Y-52469819D01*
X41420363Y-52469819D02*
X41182268Y-52469819D01*
X41182268Y-52469819D02*
X41039411Y-52517438D01*
X34139411Y-65917438D02*
X34234649Y-65869819D01*
X34234649Y-65869819D02*
X34377506Y-65869819D01*
X34377506Y-65869819D02*
X34520363Y-65917438D01*
X34520363Y-65917438D02*
X34615601Y-66012676D01*
X34615601Y-66012676D02*
X34663220Y-66107914D01*
X34663220Y-66107914D02*
X34710839Y-66298390D01*
X34710839Y-66298390D02*
X34710839Y-66441247D01*
X34710839Y-66441247D02*
X34663220Y-66631723D01*
X34663220Y-66631723D02*
X34615601Y-66726961D01*
X34615601Y-66726961D02*
X34520363Y-66822200D01*
X34520363Y-66822200D02*
X34377506Y-66869819D01*
X34377506Y-66869819D02*
X34282268Y-66869819D01*
X34282268Y-66869819D02*
X34139411Y-66822200D01*
X34139411Y-66822200D02*
X34091792Y-66774580D01*
X34091792Y-66774580D02*
X34091792Y-66441247D01*
X34091792Y-66441247D02*
X34282268Y-66441247D01*
X40163220Y-66869819D02*
X40163220Y-65869819D01*
X40163220Y-65869819D02*
X39925125Y-65869819D01*
X39925125Y-65869819D02*
X39782268Y-65917438D01*
X39782268Y-65917438D02*
X39687030Y-66012676D01*
X39687030Y-66012676D02*
X39639411Y-66107914D01*
X39639411Y-66107914D02*
X39591792Y-66298390D01*
X39591792Y-66298390D02*
X39591792Y-66441247D01*
X39591792Y-66441247D02*
X39639411Y-66631723D01*
X39639411Y-66631723D02*
X39687030Y-66726961D01*
X39687030Y-66726961D02*
X39782268Y-66822200D01*
X39782268Y-66822200D02*
X39925125Y-66869819D01*
X39925125Y-66869819D02*
X40163220Y-66869819D01*
X38972744Y-65869819D02*
X38782268Y-65869819D01*
X38782268Y-65869819D02*
X38687030Y-65917438D01*
X38687030Y-65917438D02*
X38591792Y-66012676D01*
X38591792Y-66012676D02*
X38544173Y-66203152D01*
X38544173Y-66203152D02*
X38544173Y-66536485D01*
X38544173Y-66536485D02*
X38591792Y-66726961D01*
X38591792Y-66726961D02*
X38687030Y-66822200D01*
X38687030Y-66822200D02*
X38782268Y-66869819D01*
X38782268Y-66869819D02*
X38972744Y-66869819D01*
X38972744Y-66869819D02*
X39067982Y-66822200D01*
X39067982Y-66822200D02*
X39163220Y-66726961D01*
X39163220Y-66726961D02*
X39210839Y-66536485D01*
X39210839Y-66536485D02*
X39210839Y-66203152D01*
X39210839Y-66203152D02*
X39163220Y-66012676D01*
X39163220Y-66012676D02*
X39067982Y-65917438D01*
X39067982Y-65917438D02*
X38972744Y-65869819D01*
X37291792Y-53469819D02*
X37625125Y-52993628D01*
X37863220Y-53469819D02*
X37863220Y-52469819D01*
X37863220Y-52469819D02*
X37482268Y-52469819D01*
X37482268Y-52469819D02*
X37387030Y-52517438D01*
X37387030Y-52517438D02*
X37339411Y-52565057D01*
X37339411Y-52565057D02*
X37291792Y-52660295D01*
X37291792Y-52660295D02*
X37291792Y-52803152D01*
X37291792Y-52803152D02*
X37339411Y-52898390D01*
X37339411Y-52898390D02*
X37387030Y-52946009D01*
X37387030Y-52946009D02*
X37482268Y-52993628D01*
X37482268Y-52993628D02*
X37863220Y-52993628D01*
X36910839Y-53422200D02*
X36767982Y-53469819D01*
X36767982Y-53469819D02*
X36529887Y-53469819D01*
X36529887Y-53469819D02*
X36434649Y-53422200D01*
X36434649Y-53422200D02*
X36387030Y-53374580D01*
X36387030Y-53374580D02*
X36339411Y-53279342D01*
X36339411Y-53279342D02*
X36339411Y-53184104D01*
X36339411Y-53184104D02*
X36387030Y-53088866D01*
X36387030Y-53088866D02*
X36434649Y-53041247D01*
X36434649Y-53041247D02*
X36529887Y-52993628D01*
X36529887Y-52993628D02*
X36720363Y-52946009D01*
X36720363Y-52946009D02*
X36815601Y-52898390D01*
X36815601Y-52898390D02*
X36863220Y-52850771D01*
X36863220Y-52850771D02*
X36910839Y-52755533D01*
X36910839Y-52755533D02*
X36910839Y-52660295D01*
X36910839Y-52660295D02*
X36863220Y-52565057D01*
X36863220Y-52565057D02*
X36815601Y-52517438D01*
X36815601Y-52517438D02*
X36720363Y-52469819D01*
X36720363Y-52469819D02*
X36482268Y-52469819D01*
X36482268Y-52469819D02*
X36339411Y-52517438D01*
X36053696Y-52469819D02*
X35482268Y-52469819D01*
X35767982Y-53469819D02*
X35767982Y-52469819D01*
X34906077Y-52469819D02*
X34334649Y-52469819D01*
X34620363Y-53469819D02*
X34620363Y-52469819D01*
X33858458Y-52898390D02*
X33953696Y-52850771D01*
X33953696Y-52850771D02*
X34001315Y-52803152D01*
X34001315Y-52803152D02*
X34048934Y-52707914D01*
X34048934Y-52707914D02*
X34048934Y-52660295D01*
X34048934Y-52660295D02*
X34001315Y-52565057D01*
X34001315Y-52565057D02*
X33953696Y-52517438D01*
X33953696Y-52517438D02*
X33858458Y-52469819D01*
X33858458Y-52469819D02*
X33667982Y-52469819D01*
X33667982Y-52469819D02*
X33572744Y-52517438D01*
X33572744Y-52517438D02*
X33525125Y-52565057D01*
X33525125Y-52565057D02*
X33477506Y-52660295D01*
X33477506Y-52660295D02*
X33477506Y-52707914D01*
X33477506Y-52707914D02*
X33525125Y-52803152D01*
X33525125Y-52803152D02*
X33572744Y-52850771D01*
X33572744Y-52850771D02*
X33667982Y-52898390D01*
X33667982Y-52898390D02*
X33858458Y-52898390D01*
X33858458Y-52898390D02*
X33953696Y-52946009D01*
X33953696Y-52946009D02*
X34001315Y-52993628D01*
X34001315Y-52993628D02*
X34048934Y-53088866D01*
X34048934Y-53088866D02*
X34048934Y-53279342D01*
X34048934Y-53279342D02*
X34001315Y-53374580D01*
X34001315Y-53374580D02*
X33953696Y-53422200D01*
X33953696Y-53422200D02*
X33858458Y-53469819D01*
X33858458Y-53469819D02*
X33667982Y-53469819D01*
X33667982Y-53469819D02*
X33572744Y-53422200D01*
X33572744Y-53422200D02*
X33525125Y-53374580D01*
X33525125Y-53374580D02*
X33477506Y-53279342D01*
X33477506Y-53279342D02*
X33477506Y-53088866D01*
X33477506Y-53088866D02*
X33525125Y-52993628D01*
X33525125Y-52993628D02*
X33572744Y-52946009D01*
X33572744Y-52946009D02*
X33667982Y-52898390D01*
X35106077Y-57269819D02*
X34534649Y-57269819D01*
X34820363Y-58269819D02*
X34820363Y-57269819D01*
X34248934Y-57984104D02*
X33772744Y-57984104D01*
X34344172Y-58269819D02*
X34010839Y-57269819D01*
X34010839Y-57269819D02*
X33677506Y-58269819D01*
X33201315Y-57698390D02*
X33296553Y-57650771D01*
X33296553Y-57650771D02*
X33344172Y-57603152D01*
X33344172Y-57603152D02*
X33391791Y-57507914D01*
X33391791Y-57507914D02*
X33391791Y-57460295D01*
X33391791Y-57460295D02*
X33344172Y-57365057D01*
X33344172Y-57365057D02*
X33296553Y-57317438D01*
X33296553Y-57317438D02*
X33201315Y-57269819D01*
X33201315Y-57269819D02*
X33010839Y-57269819D01*
X33010839Y-57269819D02*
X32915601Y-57317438D01*
X32915601Y-57317438D02*
X32867982Y-57365057D01*
X32867982Y-57365057D02*
X32820363Y-57460295D01*
X32820363Y-57460295D02*
X32820363Y-57507914D01*
X32820363Y-57507914D02*
X32867982Y-57603152D01*
X32867982Y-57603152D02*
X32915601Y-57650771D01*
X32915601Y-57650771D02*
X33010839Y-57698390D01*
X33010839Y-57698390D02*
X33201315Y-57698390D01*
X33201315Y-57698390D02*
X33296553Y-57746009D01*
X33296553Y-57746009D02*
X33344172Y-57793628D01*
X33344172Y-57793628D02*
X33391791Y-57888866D01*
X33391791Y-57888866D02*
X33391791Y-58079342D01*
X33391791Y-58079342D02*
X33344172Y-58174580D01*
X33344172Y-58174580D02*
X33296553Y-58222200D01*
X33296553Y-58222200D02*
X33201315Y-58269819D01*
X33201315Y-58269819D02*
X33010839Y-58269819D01*
X33010839Y-58269819D02*
X32915601Y-58222200D01*
X32915601Y-58222200D02*
X32867982Y-58174580D01*
X32867982Y-58174580D02*
X32820363Y-58079342D01*
X32820363Y-58079342D02*
X32820363Y-57888866D01*
X32820363Y-57888866D02*
X32867982Y-57793628D01*
X32867982Y-57793628D02*
X32915601Y-57746009D01*
X32915601Y-57746009D02*
X33010839Y-57698390D01*
X38010839Y-66822200D02*
X37867982Y-66869819D01*
X37867982Y-66869819D02*
X37629887Y-66869819D01*
X37629887Y-66869819D02*
X37534649Y-66822200D01*
X37534649Y-66822200D02*
X37487030Y-66774580D01*
X37487030Y-66774580D02*
X37439411Y-66679342D01*
X37439411Y-66679342D02*
X37439411Y-66584104D01*
X37439411Y-66584104D02*
X37487030Y-66488866D01*
X37487030Y-66488866D02*
X37534649Y-66441247D01*
X37534649Y-66441247D02*
X37629887Y-66393628D01*
X37629887Y-66393628D02*
X37820363Y-66346009D01*
X37820363Y-66346009D02*
X37915601Y-66298390D01*
X37915601Y-66298390D02*
X37963220Y-66250771D01*
X37963220Y-66250771D02*
X38010839Y-66155533D01*
X38010839Y-66155533D02*
X38010839Y-66060295D01*
X38010839Y-66060295D02*
X37963220Y-65965057D01*
X37963220Y-65965057D02*
X37915601Y-65917438D01*
X37915601Y-65917438D02*
X37820363Y-65869819D01*
X37820363Y-65869819D02*
X37582268Y-65869819D01*
X37582268Y-65869819D02*
X37439411Y-65917438D01*
X36439411Y-66774580D02*
X36487030Y-66822200D01*
X36487030Y-66822200D02*
X36629887Y-66869819D01*
X36629887Y-66869819D02*
X36725125Y-66869819D01*
X36725125Y-66869819D02*
X36867982Y-66822200D01*
X36867982Y-66822200D02*
X36963220Y-66726961D01*
X36963220Y-66726961D02*
X37010839Y-66631723D01*
X37010839Y-66631723D02*
X37058458Y-66441247D01*
X37058458Y-66441247D02*
X37058458Y-66298390D01*
X37058458Y-66298390D02*
X37010839Y-66107914D01*
X37010839Y-66107914D02*
X36963220Y-66012676D01*
X36963220Y-66012676D02*
X36867982Y-65917438D01*
X36867982Y-65917438D02*
X36725125Y-65869819D01*
X36725125Y-65869819D02*
X36629887Y-65869819D01*
X36629887Y-65869819D02*
X36487030Y-65917438D01*
X36487030Y-65917438D02*
X36439411Y-65965057D01*
X36010839Y-66869819D02*
X36010839Y-65869819D01*
X35439411Y-66869819D02*
X35867982Y-66298390D01*
X35439411Y-65869819D02*
X36010839Y-66441247D01*
D11*
%TO.C,JP1*%
X32500000Y-54700000D02*
X32500000Y-56700000D01*
X32500000Y-56700000D02*
X35300000Y-56700000D01*
X35300000Y-54700000D02*
X32500000Y-54700000D01*
X35300000Y-56700000D02*
X35300000Y-54700000D01*
D12*
%TO.C,G\u002A\u002A\u002A*%
G36*
X41527777Y-58365343D02*
G01*
X41529269Y-58365781D01*
X41624612Y-58398488D01*
X41732187Y-58443668D01*
X41850167Y-58500272D01*
X41976723Y-58567259D01*
X42110029Y-58643580D01*
X42248255Y-58728191D01*
X42389578Y-58820046D01*
X42532166Y-58918099D01*
X42674193Y-59021305D01*
X42682995Y-59027911D01*
X42731647Y-59065315D01*
X42785278Y-59107790D01*
X42841857Y-59153609D01*
X42899364Y-59201047D01*
X42955772Y-59248377D01*
X43009057Y-59293875D01*
X43057193Y-59335813D01*
X43098159Y-59372468D01*
X43129926Y-59402113D01*
X43150471Y-59423021D01*
X43157770Y-59433468D01*
X43155453Y-59433841D01*
X43136676Y-59434538D01*
X43099901Y-59435153D01*
X43046162Y-59435685D01*
X42976493Y-59436138D01*
X42891931Y-59436514D01*
X42793504Y-59436813D01*
X42682251Y-59437038D01*
X42559206Y-59437190D01*
X42425402Y-59437271D01*
X42281874Y-59437286D01*
X42129656Y-59437233D01*
X41969781Y-59437114D01*
X41803285Y-59436933D01*
X41631201Y-59436690D01*
X41454564Y-59436388D01*
X41274408Y-59436029D01*
X41091767Y-59435613D01*
X40907675Y-59435144D01*
X40723167Y-59434623D01*
X40539277Y-59434051D01*
X40357039Y-59433431D01*
X40177488Y-59432765D01*
X40001656Y-59432054D01*
X39830580Y-59431300D01*
X39665292Y-59430505D01*
X39506827Y-59429671D01*
X39356220Y-59428800D01*
X39214504Y-59427893D01*
X39082715Y-59426953D01*
X38961885Y-59425981D01*
X38082654Y-59418433D01*
X37995502Y-59392006D01*
X37968444Y-59383467D01*
X37849109Y-59336464D01*
X37743285Y-59277750D01*
X37649895Y-59206239D01*
X37567863Y-59120848D01*
X37496114Y-59020490D01*
X37433572Y-58904082D01*
X37379161Y-58770538D01*
X37360958Y-58719779D01*
X37335019Y-58648172D01*
X37303264Y-58561058D01*
X37266231Y-58459891D01*
X37224457Y-58346131D01*
X37178481Y-58221231D01*
X37128842Y-58086650D01*
X37076076Y-57943843D01*
X37020724Y-57794269D01*
X36963322Y-57639380D01*
X36904409Y-57480636D01*
X36844523Y-57319492D01*
X36784203Y-57157406D01*
X36723986Y-56995833D01*
X36664411Y-56836230D01*
X36661771Y-56829163D01*
X36624384Y-56729024D01*
X36584518Y-56622154D01*
X36543729Y-56512724D01*
X36503569Y-56404907D01*
X36465592Y-56302874D01*
X36431353Y-56210795D01*
X36402406Y-56132846D01*
X36394284Y-56110954D01*
X36343308Y-55973563D01*
X37089958Y-55973563D01*
X37096786Y-56001915D01*
X37099584Y-56011888D01*
X37108588Y-56040713D01*
X37122402Y-56083214D01*
X37140057Y-56136484D01*
X37160579Y-56197614D01*
X37182997Y-56263698D01*
X37206337Y-56331830D01*
X37229628Y-56399099D01*
X37240534Y-56426937D01*
X37254798Y-56450441D01*
X37270277Y-56460114D01*
X37274841Y-56460638D01*
X37297662Y-56461744D01*
X37336808Y-56462863D01*
X37390121Y-56463960D01*
X37455443Y-56464999D01*
X37530617Y-56465942D01*
X37613484Y-56466754D01*
X37701887Y-56467398D01*
X38112427Y-56469884D01*
X38178233Y-56502295D01*
X38214582Y-56522541D01*
X38256797Y-56557304D01*
X38285186Y-56600037D01*
X38303194Y-56654954D01*
X38304504Y-56661043D01*
X38309348Y-56704670D01*
X38303566Y-56744205D01*
X38301115Y-56752599D01*
X38291599Y-56775833D01*
X38277272Y-56797653D01*
X38256276Y-56819405D01*
X38226752Y-56842438D01*
X38186842Y-56868097D01*
X38134689Y-56897732D01*
X38068433Y-56932688D01*
X37986220Y-56974314D01*
X37982967Y-56975940D01*
X37900537Y-57017439D01*
X37833416Y-57051946D01*
X37779341Y-57080799D01*
X37736048Y-57105327D01*
X37701274Y-57126865D01*
X37672755Y-57146748D01*
X37648226Y-57166307D01*
X37625426Y-57186879D01*
X37612029Y-57200163D01*
X37560143Y-57267089D01*
X37524617Y-57343444D01*
X37505405Y-57429545D01*
X37502460Y-57525713D01*
X37515739Y-57632265D01*
X37545195Y-57749523D01*
X37558538Y-57790172D01*
X37580675Y-57850101D01*
X37604379Y-57907696D01*
X37626376Y-57954677D01*
X37661887Y-58015305D01*
X37731109Y-58102631D01*
X37815079Y-58177980D01*
X37912920Y-58240727D01*
X38023753Y-58290244D01*
X38146702Y-58325907D01*
X38147151Y-58326006D01*
X38168539Y-58330046D01*
X38194216Y-58333461D01*
X38226088Y-58336327D01*
X38266061Y-58338721D01*
X38316040Y-58340719D01*
X38377932Y-58342399D01*
X38453645Y-58343836D01*
X38545084Y-58345108D01*
X38654154Y-58346291D01*
X38681694Y-58346562D01*
X38784384Y-58347604D01*
X38889338Y-58348704D01*
X38992925Y-58349825D01*
X39091508Y-58350926D01*
X39181455Y-58351967D01*
X39259131Y-58352907D01*
X39320904Y-58353705D01*
X39364627Y-58354242D01*
X39425258Y-58354784D01*
X39477087Y-58355001D01*
X39517430Y-58354897D01*
X39543602Y-58354469D01*
X39552923Y-58353717D01*
X39552922Y-58353652D01*
X39549689Y-58341387D01*
X39540952Y-58313891D01*
X39527782Y-58274230D01*
X39511249Y-58225472D01*
X39492422Y-58170685D01*
X39472371Y-58112934D01*
X39452166Y-58055288D01*
X39432877Y-58000813D01*
X39415574Y-57952576D01*
X39401326Y-57913645D01*
X39391204Y-57887086D01*
X39386277Y-57875967D01*
X39385552Y-57875323D01*
X39376961Y-57872541D01*
X39358887Y-57870128D01*
X39330075Y-57868046D01*
X39289266Y-57866258D01*
X39235203Y-57864727D01*
X39166630Y-57863417D01*
X39082290Y-57862289D01*
X38980926Y-57861306D01*
X38861280Y-57860432D01*
X38346423Y-57857115D01*
X38281863Y-57826525D01*
X38257641Y-57814085D01*
X38209129Y-57779587D01*
X38175891Y-57737836D01*
X38155018Y-57685598D01*
X38151842Y-57672318D01*
X38148551Y-57620789D01*
X38162472Y-57573939D01*
X38194613Y-57527720D01*
X38201415Y-57520406D01*
X38217349Y-57505916D01*
X38238527Y-57490099D01*
X38266990Y-57471733D01*
X38304785Y-57449596D01*
X38353957Y-57422464D01*
X38416552Y-57389114D01*
X38494615Y-57348322D01*
X38497808Y-57346664D01*
X38574250Y-57306743D01*
X38635630Y-57274108D01*
X38684270Y-57247349D01*
X38722492Y-57225060D01*
X38752618Y-57205831D01*
X38776971Y-57188254D01*
X38797871Y-57170922D01*
X38817642Y-57152425D01*
X38818919Y-57151172D01*
X38864169Y-57102105D01*
X38896289Y-57054653D01*
X38917435Y-57003659D01*
X38929759Y-56943968D01*
X38935414Y-56870423D01*
X38935937Y-56847354D01*
X38931135Y-56754708D01*
X38915698Y-56669593D01*
X38890464Y-56594660D01*
X38856269Y-56532557D01*
X38813951Y-56485933D01*
X38804786Y-56479650D01*
X38776172Y-56464184D01*
X38735413Y-56444967D01*
X38686520Y-56423850D01*
X38633502Y-56402681D01*
X38507009Y-56351662D01*
X38345745Y-56280204D01*
X38181619Y-56201052D01*
X38020921Y-56117262D01*
X37869940Y-56031886D01*
X37795132Y-55987658D01*
X37442545Y-55980610D01*
X37089958Y-55973563D01*
X36343308Y-55973563D01*
X36338859Y-55961572D01*
X36289776Y-55829245D01*
X36246644Y-55712856D01*
X36209072Y-55611293D01*
X36176670Y-55523438D01*
X36149047Y-55448179D01*
X36125813Y-55384398D01*
X36106577Y-55330984D01*
X36090949Y-55286818D01*
X36078538Y-55250787D01*
X36068954Y-55221776D01*
X36061806Y-55198670D01*
X36056704Y-55180354D01*
X36053257Y-55165713D01*
X36051074Y-55153632D01*
X36049766Y-55142996D01*
X36048941Y-55132690D01*
X36048209Y-55121599D01*
X36048378Y-55072441D01*
X36061011Y-55016397D01*
X36089383Y-54965991D01*
X36135291Y-54916994D01*
X36183793Y-54880363D01*
X36241103Y-54852768D01*
X36308545Y-54835225D01*
X36390135Y-54826307D01*
X36416348Y-54824475D01*
X36451912Y-54820634D01*
X36476319Y-54816211D01*
X36485385Y-54811841D01*
X36485204Y-54810642D01*
X36478941Y-54795712D01*
X36465542Y-54769748D01*
X36447458Y-54737550D01*
X36437988Y-54720977D01*
X36407384Y-54664699D01*
X36372496Y-54597462D01*
X36335872Y-54524398D01*
X36300057Y-54450638D01*
X36267600Y-54381317D01*
X36241046Y-54321565D01*
X36224729Y-54282231D01*
X36205152Y-54232809D01*
X36184967Y-54179986D01*
X36165277Y-54126845D01*
X36147191Y-54076474D01*
X36131814Y-54031952D01*
X36120248Y-53996369D01*
X36113603Y-53972806D01*
X36112985Y-53964350D01*
X36116752Y-53968026D01*
X36128758Y-53985456D01*
X36146318Y-54013941D01*
X36167123Y-54049831D01*
X36189064Y-54088434D01*
X36308148Y-54288998D01*
X36432181Y-54483715D01*
X36558914Y-54669268D01*
X36686097Y-54842340D01*
X36811480Y-54999615D01*
X36816349Y-55005430D01*
X36857593Y-55053445D01*
X36906743Y-55108955D01*
X36961488Y-55169497D01*
X37019514Y-55232609D01*
X37078510Y-55295828D01*
X37136161Y-55356691D01*
X37190157Y-55412736D01*
X37238183Y-55461501D01*
X37277927Y-55500522D01*
X37307078Y-55527337D01*
X37465509Y-55655212D01*
X37643474Y-55782522D01*
X37833818Y-55904242D01*
X38032957Y-56018431D01*
X38237308Y-56123148D01*
X38443288Y-56216451D01*
X38647316Y-56296399D01*
X38845808Y-56361051D01*
X38972637Y-56395435D01*
X39139882Y-56432495D01*
X39303690Y-56458298D01*
X39469275Y-56473444D01*
X39641851Y-56478536D01*
X39826631Y-56474174D01*
X39861651Y-56472807D01*
X39896076Y-56472911D01*
X39921367Y-56476038D01*
X39943459Y-56483051D01*
X39968285Y-56494816D01*
X39987667Y-56505533D01*
X40010434Y-56523013D01*
X40028965Y-56546737D01*
X40048784Y-56582739D01*
X40050867Y-56587039D01*
X40062018Y-56612819D01*
X40077262Y-56650804D01*
X40095358Y-56697616D01*
X40115066Y-56749874D01*
X40135145Y-56804199D01*
X40154354Y-56857209D01*
X40171454Y-56905527D01*
X40185204Y-56945768D01*
X40194364Y-56974557D01*
X40197692Y-56988512D01*
X40193557Y-56989073D01*
X40172344Y-56989879D01*
X40134883Y-56990613D01*
X40083158Y-56991255D01*
X40019154Y-56991789D01*
X39944854Y-56992192D01*
X39862244Y-56992449D01*
X39773308Y-56992538D01*
X39714801Y-56992608D01*
X39629460Y-56992972D01*
X39551596Y-56993618D01*
X39483219Y-56994511D01*
X39426339Y-56995617D01*
X39382967Y-56996900D01*
X39355113Y-56998328D01*
X39344786Y-56999865D01*
X39346600Y-57010696D01*
X39354106Y-57036865D01*
X39366258Y-57075298D01*
X39381990Y-57122948D01*
X39400237Y-57176765D01*
X39419934Y-57233700D01*
X39440017Y-57290705D01*
X39459422Y-57344728D01*
X39477083Y-57392724D01*
X39491938Y-57431643D01*
X39502918Y-57458434D01*
X39508962Y-57470052D01*
X39511036Y-57470822D01*
X39529388Y-57472967D01*
X39564852Y-57475070D01*
X39615645Y-57477077D01*
X39679981Y-57478934D01*
X39756075Y-57480587D01*
X39842144Y-57481981D01*
X39936403Y-57483062D01*
X40014677Y-57483897D01*
X40116740Y-57485396D01*
X40202011Y-57487196D01*
X40269939Y-57489279D01*
X40319976Y-57491626D01*
X40351574Y-57494220D01*
X40364182Y-57497043D01*
X40367216Y-57503463D01*
X40376306Y-57526531D01*
X40390486Y-57564233D01*
X40408982Y-57614410D01*
X40431021Y-57674900D01*
X40455831Y-57743546D01*
X40482638Y-57818184D01*
X40510669Y-57896657D01*
X40539150Y-57976803D01*
X40567309Y-58056464D01*
X40594373Y-58133480D01*
X40619568Y-58205687D01*
X40642123Y-58270930D01*
X40661260Y-58327046D01*
X40666709Y-58329074D01*
X40689132Y-58331883D01*
X40726257Y-58334584D01*
X40775252Y-58337118D01*
X40833289Y-58339427D01*
X40897538Y-58341450D01*
X40965170Y-58343130D01*
X41033355Y-58344406D01*
X41099266Y-58345220D01*
X41160073Y-58345513D01*
X41212946Y-58345225D01*
X41255056Y-58344299D01*
X41283574Y-58342673D01*
X41295673Y-58340291D01*
X41297120Y-58338359D01*
X41298043Y-58334240D01*
X41297536Y-58327076D01*
X41295171Y-58315587D01*
X41290521Y-58298492D01*
X41283156Y-58274512D01*
X41272648Y-58242368D01*
X41258570Y-58200780D01*
X41240493Y-58148468D01*
X41217989Y-58084153D01*
X41190630Y-58006555D01*
X41157987Y-57914395D01*
X41119632Y-57806393D01*
X41075138Y-57681269D01*
X41065362Y-57653783D01*
X41026798Y-57545301D01*
X40985528Y-57429124D01*
X40943096Y-57309603D01*
X40901045Y-57191088D01*
X40860919Y-57077928D01*
X40824261Y-56974474D01*
X40792615Y-56885077D01*
X40760816Y-56795289D01*
X40725801Y-56696847D01*
X40695994Y-56613798D01*
X40670712Y-56544434D01*
X40649271Y-56487048D01*
X40630989Y-56439931D01*
X40615181Y-56401376D01*
X40601163Y-56369675D01*
X40588253Y-56343121D01*
X40575765Y-56320006D01*
X40563020Y-56298622D01*
X40549331Y-56277261D01*
X40525945Y-56243577D01*
X40462128Y-56169669D01*
X40388744Y-56109762D01*
X40301538Y-56060129D01*
X40268539Y-56044488D01*
X40236209Y-56029998D01*
X40205819Y-56018015D01*
X40175222Y-56008255D01*
X40142270Y-56000436D01*
X40104815Y-55994273D01*
X40060711Y-55989484D01*
X40007807Y-55985785D01*
X39943961Y-55982893D01*
X39867020Y-55980526D01*
X39774838Y-55978400D01*
X39665270Y-55976231D01*
X39581688Y-55974476D01*
X39448033Y-55970805D01*
X39329607Y-55966133D01*
X39223665Y-55960147D01*
X39127461Y-55952535D01*
X39038249Y-55942985D01*
X38953284Y-55931186D01*
X38869819Y-55916825D01*
X38785109Y-55899589D01*
X38696409Y-55879168D01*
X38600973Y-55855248D01*
X38580760Y-55849948D01*
X38386045Y-55791385D01*
X38190649Y-55719590D01*
X37997440Y-55636075D01*
X37809277Y-55542356D01*
X37629024Y-55439945D01*
X37459543Y-55330355D01*
X37303696Y-55215099D01*
X37164346Y-55095692D01*
X37161932Y-55093444D01*
X37123435Y-55056808D01*
X37082394Y-55016497D01*
X37041176Y-54974979D01*
X37002145Y-54934723D01*
X36967670Y-54898200D01*
X36940115Y-54867879D01*
X36921846Y-54846228D01*
X36915231Y-54835718D01*
X36921169Y-54834853D01*
X36945687Y-54833880D01*
X36988610Y-54833051D01*
X37049304Y-54832365D01*
X37127134Y-54831821D01*
X37221464Y-54831419D01*
X37331659Y-54831156D01*
X37457084Y-54831031D01*
X37597105Y-54831041D01*
X37751085Y-54831190D01*
X37918391Y-54831471D01*
X38098387Y-54831886D01*
X38290437Y-54832432D01*
X38493907Y-54833109D01*
X38708163Y-54833914D01*
X38932568Y-54834847D01*
X39166487Y-54835906D01*
X39409287Y-54837091D01*
X39660330Y-54838399D01*
X39918983Y-54839829D01*
X40184611Y-54841381D01*
X40456577Y-54843052D01*
X40572595Y-54843783D01*
X40758161Y-54844967D01*
X40925734Y-54846063D01*
X41076292Y-54847090D01*
X41210813Y-54848068D01*
X41330277Y-54849015D01*
X41435660Y-54849951D01*
X41527943Y-54850893D01*
X41608102Y-54851861D01*
X41677117Y-54852873D01*
X41735966Y-54853948D01*
X41785628Y-54855106D01*
X41827080Y-54856364D01*
X41861300Y-54857741D01*
X41889270Y-54859256D01*
X41911966Y-54860930D01*
X41930365Y-54862778D01*
X41945448Y-54864823D01*
X41958192Y-54867080D01*
X41969575Y-54869569D01*
X41980577Y-54872309D01*
X42036374Y-54888872D01*
X42144896Y-54934666D01*
X42243313Y-54994996D01*
X42329787Y-55068416D01*
X42402473Y-55153476D01*
X42459528Y-55248730D01*
X42462103Y-55254385D01*
X42472912Y-55280387D01*
X42489800Y-55322767D01*
X42512247Y-55380160D01*
X42539729Y-55451201D01*
X42571725Y-55534521D01*
X42607713Y-55628760D01*
X42647170Y-55732547D01*
X42689575Y-55844519D01*
X42734406Y-55963309D01*
X42781139Y-56087552D01*
X42829254Y-56215885D01*
X42838584Y-56240809D01*
X42900729Y-56406756D01*
X42960268Y-56565617D01*
X43017935Y-56719340D01*
X43074466Y-56869876D01*
X43130595Y-57019174D01*
X43187059Y-57169184D01*
X43244592Y-57321856D01*
X43303928Y-57479141D01*
X43365803Y-57642987D01*
X43430954Y-57815344D01*
X43500114Y-57998162D01*
X43574018Y-58193392D01*
X43653402Y-58402983D01*
X43739001Y-58628884D01*
X43759485Y-58683094D01*
X43799303Y-58789911D01*
X43832253Y-58881111D01*
X43858705Y-58958389D01*
X43879024Y-59023439D01*
X43893583Y-59077951D01*
X43902751Y-59123624D01*
X43906896Y-59162150D01*
X43906388Y-59195221D01*
X43901596Y-59224532D01*
X43892888Y-59251778D01*
X43880636Y-59278651D01*
X43862179Y-59310891D01*
X43819956Y-59362101D01*
X43767785Y-59398805D01*
X43703502Y-59422318D01*
X43624945Y-59433952D01*
X43608846Y-59435196D01*
X43572512Y-59438833D01*
X43545955Y-59442680D01*
X43534041Y-59446087D01*
X43533818Y-59446548D01*
X43538188Y-59458207D01*
X43551867Y-59482036D01*
X43572910Y-59514841D01*
X43599376Y-59553429D01*
X43602076Y-59557260D01*
X43641795Y-59614622D01*
X43685705Y-59679624D01*
X43731615Y-59748882D01*
X43777336Y-59819010D01*
X43820679Y-59886625D01*
X43859452Y-59948341D01*
X43891467Y-60000773D01*
X43914533Y-60040538D01*
X43914755Y-60040941D01*
X43918878Y-60050016D01*
X43914470Y-60046969D01*
X43900934Y-60031066D01*
X43877676Y-60001573D01*
X43844100Y-59957757D01*
X43799613Y-59898883D01*
X43657183Y-59717833D01*
X43455850Y-59485395D01*
X43239524Y-59259749D01*
X43010674Y-59043202D01*
X42771767Y-58838065D01*
X42525271Y-58646644D01*
X42273654Y-58471250D01*
X42127116Y-58374885D01*
X42371346Y-58369481D01*
X42430272Y-58368062D01*
X42504048Y-58365610D01*
X42562738Y-58362291D01*
X42609014Y-58357572D01*
X42645545Y-58350919D01*
X42675004Y-58341800D01*
X42700060Y-58329680D01*
X42723385Y-58314025D01*
X42747650Y-58294303D01*
X42762534Y-58280504D01*
X42797458Y-58234524D01*
X42818522Y-58180008D01*
X42825965Y-58115424D01*
X42820023Y-58039240D01*
X42800934Y-57949923D01*
X42791901Y-57918977D01*
X42776790Y-57871087D01*
X42756242Y-57808136D01*
X42730837Y-57731800D01*
X42701159Y-57643750D01*
X42667790Y-57545660D01*
X42631313Y-57439203D01*
X42592311Y-57326054D01*
X42551365Y-57207882D01*
X42509059Y-57086366D01*
X42465975Y-56963173D01*
X42422696Y-56839983D01*
X42379804Y-56718465D01*
X42337881Y-56600293D01*
X42297510Y-56487140D01*
X42259276Y-56380681D01*
X42223758Y-56282587D01*
X42191541Y-56194533D01*
X42163206Y-56118192D01*
X42115623Y-55991192D01*
X41789215Y-55986170D01*
X41734078Y-55985405D01*
X41660150Y-55984660D01*
X41594094Y-55984318D01*
X41538243Y-55984377D01*
X41494929Y-55984829D01*
X41466485Y-55985670D01*
X41455244Y-55986896D01*
X41456175Y-55995870D01*
X41463148Y-56020882D01*
X41475516Y-56059393D01*
X41492455Y-56108937D01*
X41513144Y-56167050D01*
X41536759Y-56231264D01*
X41539893Y-56239666D01*
X41564450Y-56305727D01*
X41594137Y-56385928D01*
X41627601Y-56476592D01*
X41663490Y-56574048D01*
X41700449Y-56674620D01*
X41737127Y-56774637D01*
X41772170Y-56870423D01*
X41816431Y-56991557D01*
X41867842Y-57132248D01*
X41913198Y-57256447D01*
X41952849Y-57365206D01*
X41987144Y-57459579D01*
X42016433Y-57540619D01*
X42041065Y-57609380D01*
X42061391Y-57666914D01*
X42077760Y-57714274D01*
X42090521Y-57752514D01*
X42100025Y-57782687D01*
X42106620Y-57805847D01*
X42110658Y-57823046D01*
X42112486Y-57835337D01*
X42112456Y-57843774D01*
X42110916Y-57849411D01*
X42108217Y-57853299D01*
X42104708Y-57856493D01*
X42100739Y-57860046D01*
X42096031Y-57862253D01*
X42080118Y-57864995D01*
X42052320Y-57867217D01*
X42011363Y-57868953D01*
X41955971Y-57870239D01*
X41884868Y-57871113D01*
X41796780Y-57871611D01*
X41690431Y-57871770D01*
X41653289Y-57871782D01*
X41556725Y-57871991D01*
X41477755Y-57872487D01*
X41414927Y-57873314D01*
X41366790Y-57874517D01*
X41331894Y-57876141D01*
X41308788Y-57878230D01*
X41296022Y-57880828D01*
X41292145Y-57883980D01*
X41293856Y-57890947D01*
X41301413Y-57914593D01*
X41314153Y-57952012D01*
X41331149Y-58000537D01*
X41351477Y-58057505D01*
X41374211Y-58120249D01*
X41455977Y-58344306D01*
X41488095Y-58353717D01*
X41527777Y-58365343D01*
G37*
D11*
%TO.C,JP2*%
X29124999Y-54700000D02*
X29124999Y-56700000D01*
X29124999Y-56700000D02*
X31924999Y-56700000D01*
X31924999Y-54700000D02*
X29124999Y-54700000D01*
X31924999Y-56700000D02*
X31924999Y-54700000D01*
%TD*%
M02*
